<?xml version="1.0" standalone="no"?>
<!DOCTYPE svg PUBLIC "-//W3C//DTD SVG 20010904//EN"
 "http://www.w3.org/TR/2001/REC-SVG-20010904/DTD/svg10.dtd">
<svg version="1.0" xmlns="http://www.w3.org/2000/svg"
 width="504.000000pt" height="504.000000pt" viewBox="0 0 504.000000 504.000000"
 preserveAspectRatio="xMidYMid meet">
<metadata>
Created by potrace 1.14, written by Peter Selinger 2001-2017
</metadata>
<g transform="translate(0.000000,504.000000) scale(0.100000,-0.100000)"
fill="#000000" stroke="none">
<path d="M398 5033 c7 -3 16 -2 19 1 4 3 -2 6 -13 5 -11 0 -14 -3 -6 -6z"/>
<path d="M455 5030 c3 -5 18 -9 33 -9 15 1 39 -2 55 -6 23 -6 26 -5 21 9 -5
12 -20 16 -61 16 -32 0 -52 -4 -48 -10z"/>
<path d="M660 5015 c0 -27 -17 -32 -53 -14 -19 9 -19 8 3 -11 22 -19 23 -22 9
-32 -15 -10 -14 -14 10 -35 l26 -25 -25 7 c-14 4 -36 8 -50 9 -31 3 -66 23
-102 59 -20 20 -28 23 -28 12 0 -12 -9 -15 -37 -13 -36 3 -38 2 -38 -26 1 -26
8 -34 55 -58 55 -28 97 -30 126 -7 7 6 16 4 24 -6 7 -8 23 -15 36 -15 18 0 28
-9 39 -36 8 -19 19 -33 25 -29 15 9 12 23 -10 45 -26 26 -27 55 -2 41 12 -6
34 -6 62 0 55 13 66 8 73 -31 4 -17 15 -39 25 -48 10 -9 24 -34 31 -55 12 -36
11 -39 -18 -69 -24 -25 -35 -29 -58 -23 -15 3 -35 13 -44 21 -14 12 -18 12
-33 -5 -28 -30 -11 -44 44 -37 39 5 49 3 54 -10 3 -9 4 -20 1 -24 -3 -5 4 -14
15 -20 17 -9 20 -8 20 9 0 25 20 38 31 20 5 -8 9 -27 9 -44 0 -16 7 -41 15
-55 8 -14 14 -35 15 -47 0 -16 6 -23 19 -23 13 0 21 -8 23 -22 2 -16 13 -25
40 -33 l37 -10 -19 -24 -18 -25 -26 30 c-16 19 -25 24 -26 14 0 -20 10 -32 37
-47 14 -8 24 -9 28 -3 3 6 17 10 30 10 17 0 25 7 30 28 4 15 10 21 12 15 3 -7
11 -13 20 -13 11 0 8 8 -11 31 -14 17 -25 34 -23 37 27 53 42 93 43 120 3 36
-7 39 -50 17 -36 -19 -35 -20 -33 12 2 21 13 33 42 50 38 22 39 23 13 23 -18
0 -28 5 -28 15 0 27 -16 16 -40 -27 -22 -39 -24 -40 -32 -19 -4 12 -5 33 -2
46 4 16 0 26 -13 34 -16 9 -16 12 -3 21 8 5 21 8 28 5 6 -2 12 2 12 9 0 17 44
29 72 20 15 -5 26 0 39 17 14 19 20 22 30 12 15 -15 69 -17 69 -4 0 5 -7 16
-15 25 -8 8 -15 19 -15 25 0 6 -8 11 -18 11 -26 0 -52 32 -52 63 0 24 -3 26
-31 20 -17 -3 -40 0 -55 7 -21 12 -30 11 -60 -4 -20 -9 -39 -14 -42 -11 -3 3
0 5 6 5 21 0 6 43 -15 46 -17 3 -20 -1 -18 -25 3 -39 12 -51 59 -72 22 -10 37
-19 32 -19 -4 0 -1 -12 9 -26 11 -18 14 -29 7 -36 -7 -7 -29 7 -67 45 -45 44
-63 55 -84 53 -14 -2 -21 -1 -14 1 16 6 23 27 12 44 -6 11 -11 11 -21 1 -6 -6
-21 -12 -33 -12 -12 0 -27 -6 -34 -12 -10 -11 -16 -8 -32 11 -10 13 -19 34
-19 47 0 12 -4 26 -10 29 -5 3 -10 15 -10 26 0 10 -7 19 -15 19 -9 0 -15 -9
-15 -25z m-184 -96 c3 -6 2 -15 -3 -20 -14 -14 -43 0 -36 17 6 17 29 19 39 3z
m609 -19 c3 -5 1 -10 -4 -10 -6 0 -11 5 -11 10 0 6 2 10 4 10 3 0 8 -4 11 -10z
m-234 -73 c-8 -8 -16 -7 -27 5 -14 14 -14 15 11 10 19 -3 23 -8 16 -15z m89
-168 c0 -5 -7 -9 -15 -9 -8 0 -15 7 -15 15 0 9 6 12 15 9 8 -4 15 -10 15 -15z
m24 -193 c-3 -9 -10 -16 -15 -16 -11 0 -12 21 -3 45 6 15 8 15 16 2 4 -8 5
-22 2 -31z"/>
<path d="M1042 5030 c2 -8 15 -20 28 -27 13 -6 27 -19 32 -27 5 -9 17 -16 26
-16 16 1 16 2 0 14 -10 7 -18 18 -18 25 0 6 -9 11 -19 11 -11 0 -27 8 -37 17
-13 13 -16 14 -12 3z"/>
<path d="M1160 5030 c0 -5 5 -10 11 -10 5 0 7 5 4 10 -3 6 -8 10 -11 10 -2 0
-4 -4 -4 -10z"/>
<path d="M1275 5022 c3 -8 5 -16 5 -18 0 -2 11 -4 25 -4 14 0 24 5 23 11 -2 6
3 14 10 16 9 3 12 -1 10 -13 -2 -13 6 -22 28 -29 42 -14 64 -33 65 -59 1 -20
2 -20 6 -1 7 27 23 46 34 40 4 -3 6 -11 3 -19 -3 -7 7 -18 21 -24 22 -10 30
-28 26 -54 -2 -11 37 -10 43 1 4 5 2 11 -4 13 -14 5 0 48 16 48 8 0 14 4 14 9
0 24 56 22 58 -2 3 -51 27 -97 50 -97 15 -1 15 -2 2 -13 -8 -7 -15 -23 -15
-37 0 -29 38 -50 91 -50 30 0 33 3 30 23 -2 12 3 29 10 38 17 19 9 49 -13 49
-9 0 -12 6 -9 18 8 26 -27 62 -53 55 -15 -4 -20 -2 -16 8 8 24 -9 38 -50 40
-22 1 -46 7 -52 12 -9 6 -18 5 -28 -3 -21 -18 -35 -3 -28 30 6 33 -10 40 -48
20 -14 -8 -19 -7 -19 1 0 11 -96 6 -138 -8 -15 -4 -15 -3 -2 6 12 9 2 11 -43
9 -43 -2 -56 -6 -52 -16z m255 -22 c0 -5 -2 -10 -4 -10 -3 0 -8 5 -11 10 -3 6
-1 10 4 10 6 0 11 -4 11 -10z m190 -71 c0 -24 -11 -24 -32 0 -16 18 -16 20 0
24 24 5 32 -1 32 -24z m52 -131 c-6 -6 -19 -7 -29 -3 -17 7 -17 8 2 15 24 9
41 2 27 -12z"/>
<path d="M3400 5016 c0 -21 22 -50 64 -84 9 -7 16 -21 16 -32 0 -26 15 -33 40
-20 17 9 19 14 9 26 -10 12 -14 12 -20 2 -7 -10 -9 -10 -10 2 -1 8 -1 19 0 23
1 4 -5 18 -13 29 -14 19 -13 23 0 32 9 7 12 18 8 29 -9 23 -24 22 -24 -3 0
-14 -7 -20 -21 -20 -12 0 -23 8 -26 20 -7 28 -23 25 -23 -4z"/>
<path d="M4855 5020 c10 -11 36 -39 58 -62 22 -23 45 -56 53 -73 14 -34 28
-48 59 -59 18 -7 18 -5 -3 17 -12 13 -22 26 -22 30 0 10 -68 106 -99 140 -13
15 -34 27 -44 27 -19 0 -20 -1 -2 -20z"/>
<path d="M3193 5023 c-22 -8 -14 -23 13 -23 15 0 24 5 22 12 -5 14 -18 18 -35
11z"/>
<path d="M162 5005 c-11 -13 -10 -15 7 -15 10 0 21 7 25 15 7 19 -15 19 -32 0z"/>
<path d="M1210 5010 c-8 -47 -6 -61 13 -71 15 -9 17 -13 6 -19 -7 -5 -17 -6
-22 -3 -5 3 -5 -3 0 -13 5 -11 11 -36 12 -57 2 -45 17 -87 30 -87 5 0 16 -6
24 -14 17 -17 57 -10 57 10 0 19 -19 18 -27 -2 -4 -12 -9 -8 -21 16 -12 24
-12 34 -3 43 10 9 16 7 31 -10 l18 -22 5 21 c5 16 12 19 32 16 38 -8 38 6 0
26 -28 15 -37 16 -49 7 -18 -15 -36 -6 -36 17 0 10 -7 28 -16 40 -8 12 -13 26
-9 32 3 5 -3 14 -14 19 -11 6 -22 23 -24 38 -2 16 -5 21 -7 13z"/>
<path d="M3290 5010 c0 -5 6 -10 14 -10 8 0 18 5 21 10 3 6 -3 10 -14 10 -12
0 -21 -4 -21 -10z"/>
<path d="M4619 5001 c-16 -13 -21 -23 -14 -30 7 -7 16 -1 27 19 20 35 18 37
-13 11z"/>
<path d="M4760 5010 c0 -5 5 -10 10 -10 6 0 10 5 10 10 0 6 -4 10 -10 10 -5 0
-10 -4 -10 -10z"/>
<path d="M2756 4995 c-21 -16 -15 -45 9 -45 8 0 20 11 25 24 5 14 19 26 32 29
16 3 12 5 -12 5 -19 1 -43 -5 -54 -13z"/>
<path d="M940 4985 c0 -10 10 -15 27 -15 26 0 26 1 7 15 -25 19 -34 19 -34 0z"/>
<path d="M2923 4977 c0 -24 52 -64 61 -48 3 5 -6 13 -19 19 -15 7 -25 20 -25
32 0 11 -4 20 -9 20 -5 0 -8 -10 -8 -23z"/>
<path d="M2466 4983 c5 -5 12 -12 16 -18 4 -6 8 -2 8 8 0 9 -7 17 -17 17 -9 0
-12 -3 -7 -7z"/>
<path d="M4722 4973 c-6 -2 -9 -10 -6 -15 4 -7 2 -8 -4 -4 -21 13 -32 -3 -20
-30 14 -29 -1 -45 -33 -37 -17 5 -19 1 -16 -30 2 -21 -1 -38 -7 -40 -7 -3 -4
-12 8 -25 16 -18 17 -25 6 -54 -7 -18 -14 -46 -16 -62 -3 -25 -2 -27 12 -16
20 18 50 -10 40 -37 -7 -17 -8 -17 -21 0 -15 21 -25 11 -32 -35 -3 -19 1 -36
12 -48 16 -17 15 -19 -3 -29 -17 -9 -19 -18 -15 -53 7 -52 9 -54 27 -39 8 6
20 10 27 9 20 -5 40 86 40 177 0 68 3 87 29 139 17 32 30 70 30 83 0 13 5 33
10 43 7 13 7 21 0 25 -5 3 -10 16 -10 29 0 13 -8 30 -18 39 -20 18 -20 18 -40
10z"/>
<path d="M2998 4963 c6 -2 18 -2 25 0 6 3 1 5 -13 5 -14 0 -19 -2 -12 -5z"/>
<path d="M2197 4936 c-10 -8 -14 -16 -10 -19 5 -3 20 3 33 14 17 12 20 19 10
18 -8 0 -23 -6 -33 -13z"/>
<path d="M4070 4931 c-12 -24 -7 -51 9 -51 15 0 23 38 13 56 -9 15 -11 15 -22
-5z"/>
<path d="M8 4928 c-4 -8 3 -13 18 -13 13 0 23 5 21 10 -5 15 -34 18 -39 3z"/>
<path d="M75 4920 c12 -13 22 -17 28 -11 13 13 -1 31 -25 31 -21 0 -21 -1 -3
-20z"/>
<path d="M293 4923 c4 -3 2 -12 -3 -18 -7 -8 -4 -17 9 -29 25 -23 41 -13 41
25 0 25 -4 29 -27 29 -14 0 -23 -3 -20 -7z"/>
<path d="M1610 4920 c0 -5 5 -10 11 -10 5 0 7 5 4 10 -3 6 -8 10 -11 10 -2 0
-4 -4 -4 -10z"/>
<path d="M1950 4922 c0 -14 11 -21 26 -15 8 3 11 9 8 14 -7 11 -34 12 -34 1z"/>
<path d="M3180 4926 c0 -2 7 -6 15 -10 8 -3 15 -1 15 4 0 6 -7 10 -15 10 -8 0
-15 -2 -15 -4z"/>
<path d="M3716 4921 c8 -8 -39 -40 -50 -33 -6 3 -22 7 -36 8 -14 0 -34 4 -44
9 -17 7 -18 5 -12 -21 4 -16 12 -30 17 -32 13 -5 11 -20 -3 -19 -42 1 -57 -4
-52 -18 4 -10 0 -15 -15 -15 -30 0 -26 -21 14 -64 25 -27 39 -36 54 -31 19 6
51 -17 51 -36 0 -5 5 -9 11 -9 14 0 1 60 -18 82 -12 13 -20 15 -39 6 -32 -15
-58 5 -43 33 5 10 16 19 24 19 7 0 15 5 17 12 2 6 30 13 61 16 56 4 61 9 58
45 -2 12 5 17 23 17 18 0 26 5 26 18 0 11 -8 17 -24 17 -13 0 -23 -2 -20 -4z"/>
<path d="M3855 4920 c-3 -5 3 -10 14 -10 12 0 21 5 21 10 0 6 -6 10 -14 10 -8
0 -18 -4 -21 -10z"/>
<path d="M3405 4910 c-3 -5 1 -10 9 -10 9 0 16 5 16 10 0 6 -4 10 -9 10 -6 0
-13 -4 -16 -10z"/>
<path d="M2240 4887 c0 -8 9 -17 19 -20 17 -4 61 -83 61 -110 0 -6 -17 -7 -44
-4 -34 5 -47 3 -60 -12 -21 -23 -20 -28 5 -34 18 -5 20 -2 17 18 -4 21 -3 22
19 14 44 -17 61 -11 73 25 9 27 8 42 -5 74 -9 22 -24 42 -33 45 -9 3 -25 8
-34 12 -13 5 -18 3 -18 -8z"/>
<path d="M370 4879 c0 -5 -10 -23 -22 -40 l-23 -30 25 -20 c31 -24 56 -20 52
8 -2 12 4 23 14 27 12 5 14 9 5 20 -6 7 -9 15 -6 18 3 3 -6 10 -20 16 -16 8
-25 8 -25 1z"/>
<path d="M3870 4875 c7 -8 10 -22 6 -30 -8 -22 2 -18 15 6 9 17 8 23 -2 30
-22 14 -33 10 -19 -6z"/>
<path d="M1840 4857 c0 -8 9 -22 20 -32 11 -10 19 -25 18 -34 -2 -8 5 -17 14
-19 14 -3 16 4 14 38 -4 47 -2 45 -38 54 -20 5 -28 3 -28 -7z"/>
<path d="M151 4840 c-33 -28 -21 -50 26 -46 42 2 50 20 21 49 -21 21 -18 21
-47 -3z"/>
<path d="M1491 4810 c-2 -52 10 -65 29 -30 6 11 17 20 25 20 11 0 11 5 -1 30
-9 17 -23 30 -33 30 -14 0 -18 -10 -20 -50z"/>
<path d="M4892 4851 c-10 -6 -10 -11 3 -21 14 -12 16 -29 11 -113 -5 -87 -3
-102 11 -112 15 -11 15 -15 4 -29 -7 -9 -24 -16 -37 -16 -30 0 -31 -22 -5 -80
17 -38 17 -46 5 -76 -8 -19 -14 -68 -14 -111 0 -88 -10 -117 -30 -87 -11 18
-11 18 -6 1 3 -10 6 -21 6 -23 0 -2 10 -4 23 -4 12 0 35 -7 51 -15 24 -13 31
-13 38 -3 9 14 8 10 12 338 l2 235 -28 63 c-16 34 -30 62 -31 62 -1 0 -8 -4
-15 -9z"/>
<path d="M724 4825 c21 -16 32 -13 21 4 -3 6 -14 11 -23 11 -15 -1 -15 -2 2
-15z"/>
<path d="M510 4815 c0 -11 11 -15 38 -15 l37 0 -29 15 c-36 19 -46 19 -46 0z"/>
<path d="M2220 4820 c0 -5 7 -10 16 -10 8 0 12 5 9 10 -3 6 -10 10 -16 10 -5
0 -9 -4 -9 -10z"/>
<path d="M3617 4796 c-10 -24 -9 -26 8 -26 7 0 19 -8 24 -17 10 -17 10 -17 11
-1 0 9 -6 21 -14 25 -7 4 -15 15 -18 22 -3 12 -6 11 -11 -3z"/>
<path d="M4045 4776 c-4 -19 -4 -44 0 -55 7 -24 40 -28 49 -6 3 8 15 15 26 15
31 0 23 -44 -7 -48 -30 -4 -28 -12 7 -40 28 -22 29 -22 39 -4 6 11 6 24 0 33
-5 7 -9 34 -10 59 0 25 -4 54 -9 65 -7 19 -8 19 -18 -5 -5 -14 -7 -29 -4 -35
3 -5 -1 -4 -10 2 -8 7 -19 9 -23 5 -5 -4 -5 -1 -1 6 4 6 2 12 -3 12 -6 0 -11
7 -11 15 0 29 -19 15 -25 -19z"/>
<path d="M72 4780 c-8 -13 -8 -20 -2 -20 6 0 13 7 17 15 9 24 -1 27 -15 5z"/>
<path d="M1450 4785 c7 -8 16 -12 21 -9 13 8 1 24 -18 24 -13 0 -13 -3 -3 -15z"/>
<path d="M2573 4775 c0 -18 5 -25 18 -25 14 0 19 7 19 25 0 18 -5 25 -19 25
-13 0 -18 -7 -18 -25z"/>
<path d="M602 4774 c2 -5 10 -24 17 -41 15 -38 51 -47 51 -13 0 11 -7 20 -15
20 -8 0 -25 10 -36 21 -12 12 -20 18 -17 13z"/>
<path d="M3280 4765 c0 -8 4 -15 10 -15 5 0 7 7 4 15 -4 8 -8 15 -10 15 -2 0
-4 -7 -4 -15z"/>
<path d="M1398 4735 c3 -16 11 -25 23 -25 24 0 25 19 2 36 -26 19 -31 17 -25
-11z"/>
<path d="M1954 4752 c-18 -11 -20 -44 -4 -80 18 -39 31 -37 42 6 6 24 14 32
31 32 17 0 19 2 8 9 -12 8 -12 10 0 14 8 2 4 3 -7 1 -12 -2 -27 3 -34 11 -14
17 -20 18 -36 7z"/>
<path d="M2758 4753 c7 -3 16 -2 19 1 4 3 -2 6 -13 5 -11 0 -14 -3 -6 -6z"/>
<path d="M4786 4747 c3 -10 9 -15 12 -12 3 3 0 11 -7 18 -10 9 -11 8 -5 -6z"/>
<path d="M90 4746 c0 -2 7 -7 16 -10 8 -3 12 -2 9 4 -6 10 -25 14 -25 6z"/>
<path d="M366 4735 c-19 -14 -19 -16 -3 -50 22 -46 21 -53 -5 -57 -22 -3 -21
-5 14 -40 21 -21 47 -38 58 -38 12 0 18 5 15 10 -3 6 -15 10 -26 10 -14 0 -19
7 -19 30 0 17 -1 33 -2 38 -2 4 7 11 20 17 25 11 29 25 7 25 -11 0 -14 9 -13
32 3 37 -16 46 -46 23z"/>
<path d="M1040 4731 c17 -32 67 -59 67 -37 0 7 -18 22 -39 33 -33 19 -37 19
-28 4z"/>
<path d="M2620 4746 c0 -2 8 -10 18 -17 15 -13 16 -12 3 4 -13 16 -21 21 -21
13z"/>
<path d="M196 4731 c-4 -5 -2 -12 3 -15 5 -4 12 -2 15 3 4 5 2 12 -3 15 -5 4
-12 2 -15 -3z"/>
<path d="M1590 4710 c0 -15 7 -33 16 -41 9 -7 15 -26 14 -48 -2 -42 8 -81 21
-81 5 0 9 16 9 35 0 19 5 35 11 35 6 0 8 7 5 16 -4 10 1 25 10 35 15 16 15 20
1 34 -9 8 -23 15 -31 15 -9 0 -16 4 -16 9 0 5 -9 11 -20 14 -16 4 -20 0 -20
-23z"/>
<path d="M2785 4730 c-3 -5 -1 -10 4 -10 6 0 11 5 11 10 0 6 -2 10 -4 10 -3 0
-8 -4 -11 -10z"/>
<path d="M727 4716 c-4 -10 -1 -13 8 -9 8 3 12 9 9 14 -7 12 -11 11 -17 -5z"/>
<path d="M1136 4723 c-3 -3 -3 -10 0 -14 7 -12 34 -11 34 0 0 11 -26 22 -34
14z"/>
<path d="M3495 4720 c4 -6 11 -8 16 -5 14 9 11 15 -7 15 -8 0 -12 -5 -9 -10z"/>
<path d="M7 4713 c-4 -3 -7 -17 -7 -30 0 -24 7 -27 68 -23 17 1 32 -3 32 -9 0
-6 -5 -11 -12 -11 -9 0 -9 -3 0 -12 19 -19 14 -26 -13 -20 -19 3 -32 -3 -51
-23 -14 -15 -24 -29 -22 -31 8 -8 79 -54 84 -54 2 0 2 11 -2 25 -7 28 4 32 37
14 11 -6 34 -11 50 -11 18 -1 37 -10 47 -22 9 -12 25 -20 35 -18 15 3 17 9 12
30 -4 15 -9 35 -10 45 -2 20 -55 74 -55 56 0 -6 8 -18 18 -25 11 -9 13 -13 4
-14 -10 0 -12 -9 -7 -32 7 -32 7 -32 -12 -16 -11 10 -27 15 -40 12 -12 -3 -31
1 -43 9 l-21 14 25 17 c14 9 29 16 34 16 4 0 7 12 6 28 -2 41 -3 42 -20 42 -8
0 -22 7 -30 15 -9 8 -24 16 -35 16 -32 2 -37 4 -45 12 -9 9 -19 9 -27 0z"/>
<path d="M227 4713 c-2 -5 -1 -19 4 -33 7 -23 7 -23 8 8 1 31 -3 40 -12 25z"/>
<path d="M2677 4711 c-17 -6 -16 -8 8 -19 31 -14 40 -10 32 13 -7 16 -13 17
-40 6z"/>
<path d="M2455 4700 c-3 -5 -1 -10 4 -10 6 0 11 5 11 10 0 6 -2 10 -4 10 -3 0
-8 -4 -11 -10z"/>
<path d="M1740 4692 c0 -12 34 -42 48 -42 15 0 15 11 -2 33 -14 17 -46 24 -46
9z"/>
<path d="M3457 4683 c-9 -9 33 -53 50 -53 17 0 16 11 -3 38 -15 22 -35 28 -47
15z"/>
<path d="M3550 4670 c-12 -8 -12 -10 3 -16 21 -8 35 2 21 16 -5 5 -15 6 -24 0z"/>
<path d="M3836 4665 c-3 -8 -1 -15 4 -15 13 0 22 18 11 24 -5 3 -11 -1 -15 -9z"/>
<path d="M3986 4668 c-9 -5 -23 -7 -31 -4 -9 3 -16 -5 -20 -25 -4 -17 -10 -28
-13 -25 -3 4 -15 -3 -27 -14 -24 -22 -62 -18 -68 9 -3 14 -5 14 -12 -2 -21
-49 60 -56 108 -9 39 38 49 40 45 9 -1 -13 5 -35 15 -50 19 -30 22 -61 7 -104
-8 -23 -7 -36 5 -59 8 -16 15 -38 15 -48 0 -19 0 -19 19 0 14 14 16 24 9 38
-5 10 -7 33 -4 51 4 19 3 36 -2 39 -5 3 -9 19 -10 36 0 23 4 31 22 36 18 4 23
13 24 45 1 21 -2 39 -6 39 -4 0 -19 11 -33 24 -19 18 -30 21 -43 14z m54 -102
c0 -3 -4 -8 -10 -11 -5 -3 -10 -1 -10 4 0 6 5 11 10 11 6 0 10 -2 10 -4z"/>
<path d="M2213 4663 c-18 -7 -16 -33 2 -33 8 0 15 9 15 20 0 11 -1 20 -2 19
-2 0 -9 -3 -15 -6z"/>
<path d="M1450 4629 c13 -43 14 -44 33 -4 l17 35 -29 0 c-28 0 -29 -1 -21 -31z"/>
<path d="M3218 4653 c7 -3 16 -2 19 1 4 3 -2 6 -13 5 -11 0 -14 -3 -6 -6z"/>
<path d="M287 4633 c-12 -11 -8 -23 8 -23 8 0 15 7 15 15 0 16 -12 20 -23 8z"/>
<path d="M2225 4600 c3 -5 10 -10 16 -10 5 0 9 5 9 10 0 6 -7 10 -16 10 -8 0
-12 -4 -9 -10z"/>
<path d="M1135 4580 c-8 -13 22 -50 41 -50 9 0 10 8 5 28 -8 28 -34 41 -46 22z"/>
<path d="M3601 4561 c-8 -14 -7 -22 3 -30 16 -14 26 -4 26 26 0 28 -15 30 -29
4z"/>
<path d="M280 4555 c7 -9 15 -13 17 -11 7 7 -7 26 -19 26 -6 0 -6 -6 2 -15z"/>
<path d="M563 4563 c-13 -5 -19 -33 -7 -33 15 0 44 22 39 31 -7 10 -13 10 -32
2z"/>
<path d="M1890 4560 c0 -5 5 -10 11 -10 5 0 7 5 4 10 -3 6 -8 10 -11 10 -2 0
-4 -4 -4 -10z"/>
<path d="M2698 4555 c-2 -2 -48 -5 -103 -8 l-100 -4 -81 -57 c-89 -61 -117
-101 -150 -212 -20 -70 -23 -306 -3 -313 6 -2 20 -12 30 -22 11 -11 23 -19 28
-19 5 0 11 -9 14 -20 6 -23 -11 -27 -20 -5 -3 9 -18 22 -33 30 -43 22 -54 2
-47 -89 5 -61 24 -142 26 -112 1 5 8 3 16 -4 12 -10 16 -9 21 4 8 20 34 21 34
1 0 -9 7 -18 15 -21 12 -5 13 -10 4 -20 -8 -10 -8 -14 0 -14 6 0 11 -7 11 -16
0 -11 -8 -14 -27 -12 -23 2 -28 8 -25 26 1 15 -2 22 -10 20 -27 -9 -17 -35 21
-56 41 -23 45 -31 67 -127 4 -16 12 -37 18 -45 39 -52 45 -75 50 -188 2 -46
-1 -65 -11 -69 -13 -5 -10 -32 10 -83 15 -40 18 -71 4 -63 -13 8 12 -28 28
-39 5 -4 6 -10 2 -14 -3 -4 -13 -1 -22 6 -9 7 -15 8 -15 2 0 -5 -10 -8 -22 -5
l-23 5 24 -21 c15 -14 18 -21 10 -22 -8 -1 -21 -2 -29 -3 -8 0 -14 -8 -12 -16
5 -21 -71 53 -124 122 -49 63 -52 73 -27 100 17 19 16 19 -7 14 -14 -3 -41 -7
-62 -11 -27 -4 -45 -17 -73 -50 -20 -25 -45 -45 -55 -45 -10 0 -62 -29 -115
-65 -54 -36 -103 -65 -110 -65 -19 0 -36 -25 -25 -36 5 -5 -9 -8 -38 -6 -42 3
-51 -1 -87 -34 -21 -20 -60 -51 -85 -69 -25 -17 -55 -46 -68 -65 -12 -18 -22
-26 -22 -18 0 7 -5 19 -12 26 -20 20 -48 -15 -48 -58 0 -25 -7 -43 -21 -56
-32 -29 -50 -71 -51 -116 -1 -60 -45 -124 -111 -162 -117 -67 -137 -81 -133
-93 3 -6 6 -63 7 -127 2 -92 -1 -119 -13 -133 -28 -33 -39 -82 -27 -126 8 -32
8 -43 -4 -55 -13 -13 -17 -11 -32 11 -9 15 -14 31 -10 37 3 5 -1 10 -9 10 -9
0 -16 -4 -16 -10 0 -5 -8 -10 -17 -10 -10 0 -24 -4 -32 -9 -11 -7 -10 -14 7
-38 18 -25 26 -29 53 -25 17 3 30 1 27 -4 -2 -5 -13 -27 -23 -49 -11 -22 -26
-48 -34 -57 -7 -10 -14 -35 -15 -57 0 -22 -4 -37 -9 -34 -21 13 -34 -33 -31
-109 2 -73 1 -77 -16 -68 -15 8 -23 5 -39 -16 -25 -31 -25 -34 -7 -59 15 -23
26 -73 19 -91 -2 -6 -13 -10 -24 -7 -20 6 -27 -13 -7 -19 8 -3 7 -12 -5 -34
-23 -43 -36 -90 -30 -112 3 -11 -1 -22 -10 -25 -11 -4 -15 2 -14 21 3 84 -2
98 -38 112 -26 10 -35 20 -35 36 0 13 -4 26 -10 29 -5 3 -10 15 -10 26 0 26
30 25 37 -1 3 -12 11 -19 17 -17 14 5 16 46 5 112 -6 41 -4 52 9 63 18 14 27
88 11 98 -5 3 -9 -1 -9 -8 0 -7 -8 2 -17 21 -16 31 -16 34 0 46 24 17 21 22
-16 30 -19 5 -47 24 -70 48 -42 46 -54 44 -37 -7 7 -22 8 -41 2 -53 -18 -33
-41 -97 -47 -131 -5 -23 -12 -32 -27 -32 -11 0 -35 -7 -54 -16 -28 -13 -37
-14 -49 -4 -9 7 -14 22 -13 34 2 16 -4 21 -30 27 -18 4 -35 9 -37 11 -8 8 70
3 82 -5 8 -5 18 2 29 18 9 14 25 25 35 25 10 0 23 9 29 20 7 12 7 20 1 20 -16
0 0 73 22 98 l20 22 -26 0 c-40 0 -77 21 -83 47 -4 13 -4 26 -1 30 8 7 97 -28
97 -38 0 -5 7 -9 15 -9 8 0 15 8 15 19 0 25 25 44 49 36 13 -4 21 0 25 12 3
10 4 -1 2 -25 -3 -34 0 -44 16 -53 16 -9 24 -7 39 10 11 12 31 21 44 21 14 0
25 5 25 10 0 6 9 19 20 30 26 26 17 45 -13 28 -32 -17 -95 -18 -101 -1 -3 7 1
16 9 19 8 4 15 15 15 26 0 18 -5 20 -33 15 -28 -4 -36 -1 -62 34 -16 21 -37
39 -48 39 -28 0 -126 30 -132 41 -4 5 3 9 15 9 29 0 90 27 90 39 0 6 -13 11
-29 11 -42 0 -81 17 -81 35 0 16 42 30 64 22 9 -4 17 2 21 14 5 14 -6 33 -39
70 -35 39 -45 56 -40 74 4 18 1 25 -15 30 -11 3 -26 3 -31 0 -6 -4 -22 0 -35
9 -33 22 -44 20 -55 -9 -9 -24 -34 -34 -43 -17 -3 4 -31 5 -63 3 l-59 -3 28
-24 c16 -13 40 -24 55 -25 15 0 20 -3 12 -6 -8 -2 -25 -9 -37 -15 -18 -9 -28
-7 -55 14 -41 31 -84 40 -100 21 -6 -8 -18 -11 -27 -8 -11 4 -10 1 4 -15 13
-15 15 -24 8 -31 -14 -14 -34 -3 -27 15 3 9 -4 15 -20 18 -27 5 -36 -6 -13
-16 9 -5 9 -7 0 -12 -8 -3 -13 -26 -13 -57 0 -42 4 -55 21 -65 12 -7 18 -16
15 -19 -3 -3 -12 0 -21 7 -13 11 -15 -1 -15 -104 0 -115 0 -117 28 -141 21
-20 24 -26 13 -34 -11 -7 -9 -10 8 -16 11 -3 21 -10 21 -15 0 -18 -22 -21 -45
-6 l-25 16 0 -219 c0 -185 2 -220 14 -215 8 3 17 1 21 -5 3 -6 -1 -11 -9 -11
-10 0 -13 -6 -10 -15 4 -8 1 -22 -6 -30 -10 -13 -10 -19 4 -33 20 -23 21 -52
1 -52 -12 0 -15 -15 -15 -75 0 -65 2 -75 18 -75 16 -1 16 -1 0 -14 -27 -20
-22 -36 12 -36 19 0 30 5 30 14 0 27 21 28 55 1 75 -57 26 -76 -97 -39 -15 4
-18 -1 -18 -29 0 -37 12 -47 59 -47 32 0 67 -23 58 -37 -4 -6 -25 -13 -46 -15
-22 -2 -38 -1 -35 3 2 3 -5 14 -16 24 -20 18 -20 17 -20 -185 0 -180 2 -201
16 -196 9 3 18 6 20 6 2 0 4 16 4 35 0 19 2 35 5 35 4 0 57 -22 64 -27 2 -1
-8 -12 -22 -24 -15 -11 -27 -29 -27 -40 0 -16 -5 -18 -30 -14 -37 7 -41 -17
-7 -46 l22 -20 -23 -15 c-20 -15 -22 -24 -22 -109 0 -85 2 -93 21 -98 11 -3
19 -11 18 -19 -4 -33 2 -38 42 -36 27 2 43 -2 46 -9 3 -7 -2 -13 -11 -13 -12
0 -14 -5 -6 -25 8 -22 6 -25 -23 -34 -21 -6 49 -9 215 -10 162 -1 248 2 248 9
0 5 7 10 15 10 8 0 15 -4 15 -10 0 -5 15 -10 34 -10 28 0 33 3 29 19 -4 16 0
17 41 11 40 -6 46 -4 46 11 0 19 23 31 45 23 17 -7 20 -20 5 -29 -15 -9 -12
-22 7 -29 18 -7 34 10 26 30 -8 23 8 37 21 19 11 -15 80 -35 133 -39 12 0 25
-4 29 -8 4 -5 21 -8 38 -8 26 0 31 4 31 25 0 14 -5 23 -11 21 -6 -2 -17 0 -25
5 -12 7 -11 13 4 40 13 24 15 35 6 45 -8 10 -6 22 10 49 11 19 17 35 12 35
-14 0 -63 -69 -56 -79 3 -5 0 -13 -6 -16 -7 -5 -10 7 -7 40 2 32 -1 49 -9 52
-7 3 -13 0 -13 -6 0 -19 -43 -61 -63 -61 -12 0 -17 -5 -14 -14 3 -8 0 -19 -7
-25 -8 -7 -11 -22 -8 -38 3 -18 1 -24 -7 -19 -6 4 -11 13 -11 20 0 7 -19 29
-42 49 -23 20 -40 37 -38 38 99 16 129 30 135 61 9 38 -2 48 -14 14 -6 -14
-15 -27 -21 -27 -5 -1 -14 -2 -19 -3 -5 0 -13 -4 -17 -9 -11 -11 -19 -9 -44
13 -13 11 -31 20 -42 20 -10 0 -18 5 -18 10 0 6 -18 26 -40 46 -22 20 -40 40
-40 44 0 4 20 5 45 2 27 -3 50 0 59 7 11 9 20 10 36 1 19 -10 20 -9 15 13 -8
29 3 38 46 39 41 1 60 -19 35 -37 -10 -8 -15 -19 -11 -25 4 -6 2 -17 -5 -25
-8 -9 -8 -15 0 -20 6 -3 8 -10 5 -15 -3 -5 -1 -11 4 -14 13 -8 27 15 29 47 1
15 10 39 19 54 l17 26 8 -32 c7 -26 13 -31 38 -31 20 0 31 6 35 20 3 11 11 20
17 20 6 0 5 6 -2 15 -9 11 -10 19 -3 26 7 7 17 -7 31 -42 26 -61 27 -73 7 -66
-8 4 -17 2 -20 -3 -4 -6 5 -14 19 -20 14 -5 26 -14 26 -20 0 -5 9 -10 20 -10
21 0 48 -39 34 -49 -11 -7 -12 -56 -2 -66 4 -4 4 -13 1 -21 -4 -12 0 -14 21
-8 14 3 26 2 26 -3 0 -15 -39 -43 -53 -38 -8 4 -13 -5 -15 -25 l-2 -30 154 0
c91 0 157 4 161 10 3 6 -1 7 -9 4 -9 -3 -16 -1 -16 5 0 6 5 11 10 11 15 0 12
12 -11 40 -11 14 -18 20 -16 15 3 -6 2 -17 -4 -25 -9 -16 -10 -11 -13 46 -1
11 -7 28 -13 36 -7 8 -10 18 -6 21 3 4 -1 7 -11 7 -9 0 -14 5 -11 10 3 6 0 13
-8 16 -9 3 -13 13 -9 26 3 13 -4 28 -22 44 -46 43 -31 70 64 113 71 32 139 49
141 35 1 -5 2 -21 3 -36 0 -14 4 -30 9 -34 4 -4 7 -17 7 -29 0 -13 7 -28 15
-35 8 -7 15 -22 15 -34 0 -12 4 -26 9 -31 5 -6 14 -28 21 -50 7 -22 26 -68 43
-102 l30 -63 986 0 986 0 0 50 c0 27 -3 50 -7 50 -4 0 -7 21 -7 48 2 56 -6
125 -15 141 -4 6 -1 21 6 33 7 13 13 37 13 53 0 29 1 30 67 39 72 9 102 5 132
-19 16 -12 18 -26 16 -97 -1 -46 -4 -99 -6 -118 -7 -49 -12 -188 -7 -172 3 6
11 12 18 12 7 0 20 12 30 26 17 27 30 25 30 -4 0 -9 6 -17 13 -17 7 0 16 -6
21 -13 6 -9 71 -12 292 -10 l284 3 3 58 c3 49 1 57 -15 58 -16 0 -16 1 2 9 24
9 37 -1 39 -32 1 -17 7 -23 24 -22 12 0 22 -3 22 -8 0 -5 5 -6 10 -3 6 3 10 1
10 -4 0 -6 4 -11 9 -11 10 0 3 39 -11 57 -5 7 -5 14 2 18 5 3 10 13 10 22 0 9
-3 14 -6 10 -4 -3 -22 5 -40 20 -19 14 -34 20 -34 14 0 -6 -7 -11 -15 -11 -9
0 -15 9 -15 23 0 25 -52 82 -63 70 -4 -3 -7 2 -7 12 0 10 -15 31 -32 46 -18
15 -29 31 -25 36 5 4 22 -7 38 -25 16 -17 33 -32 38 -32 5 0 33 -24 62 -53 64
-62 100 -86 133 -89 22 -2 24 -6 19 -28 -9 -39 -16 -45 -24 -24 -6 14 -8 15
-8 3 -1 -9 8 -24 19 -34 23 -21 26 -37 6 -29 -7 3 -16 -2 -19 -10 -4 -9 -13
-16 -20 -16 -8 0 -20 -7 -27 -15 -11 -13 -1 -15 84 -15 92 0 97 1 91 20 -3 11
1 30 11 44 9 14 14 32 11 39 -3 8 -1 20 4 28 7 11 9 9 9 -6 0 -12 5 -26 11
-32 8 -8 8 -17 -1 -33 -9 -17 -9 -21 0 -15 7 4 13 -1 17 -14 6 -22 19 -26 41
-13 10 7 10 14 -3 38 -8 16 -15 34 -15 39 0 15 54 37 73 29 20 -7 58 18 49 32
-13 19 -40 23 -46 7 -4 -8 -13 -13 -20 -10 -17 7 -39 -16 -28 -28 4 -5 2 -5
-5 -1 -12 6 -21 40 -27 100 l-4 29 19 -24 c10 -13 19 -28 19 -32 0 -5 7 -1 16
7 12 12 20 13 35 6 10 -6 19 -8 19 -4 0 3 7 1 15 -6 17 -14 21 0 4 17 -18 18
-2 43 26 43 l25 0 0 505 c0 470 -1 505 -17 514 -17 9 -17 11 0 39 9 17 17 46
17 65 0 30 -4 37 -31 46 -34 12 -31 31 7 31 19 0 24 5 24 27 0 21 -3 24 -12
15 -7 -7 -19 -12 -27 -12 -8 0 -11 3 -8 7 4 3 2 12 -3 18 -6 7 -7 20 -4 29 6
15 8 15 30 1 l24 -15 0 94 c0 89 -1 94 -22 100 -13 3 -24 1 -26 -4 -2 -6 -8
-10 -13 -10 -6 0 -8 4 -4 9 10 17 -18 24 -30 8 -14 -20 -46 -22 -63 -5 -9 9
-15 8 -28 -8 -15 -18 -15 -18 -9 0 3 11 0 23 -7 28 -20 12 -26 10 -33 -12 -8
-25 -41 -44 -58 -33 -6 4 -28 9 -48 9 -20 1 -42 5 -48 8 -15 10 -14 43 2 49 9
3 9 7 -2 20 -21 26 -38 20 -51 -17 -13 -41 -34 -61 -52 -50 -18 11 -108 13
-108 3 0 -5 -4 -9 -10 -9 -5 0 -10 6 -10 13 0 7 -6 21 -13 31 -12 16 -15 17
-20 3 -3 -9 6 -27 24 -46 16 -17 29 -35 29 -40 0 -5 9 -11 21 -14 17 -5 20
-11 14 -35 -5 -25 -2 -30 17 -36 l23 -6 -25 -14 c-15 -9 -29 -11 -36 -5 -18
15 -136 10 -153 -6 -2 -2 18 -29 43 -60 48 -59 53 -70 36 -80 -5 -3 -10 0 -10
8 0 8 -7 20 -15 27 -11 9 -15 9 -15 1 0 -7 -6 -11 -12 -10 -30 3 -58 -14 -58
-36 0 -15 -7 -25 -21 -28 -12 -3 -18 -10 -15 -15 3 -5 -6 -20 -20 -33 -21 -20
-24 -29 -19 -59 12 -64 64 -97 113 -71 9 5 25 12 35 15 14 5 16 10 7 25 -14
27 -13 32 8 29 14 -2 16 3 14 30 l-2 34 55 -4 c30 -1 55 1 55 6 0 4 11 6 24 4
31 -6 43 18 16 32 -12 7 -22 26 -26 51 -4 21 -11 42 -15 45 -13 8 -11 52 3 60
6 4 17 -1 24 -11 12 -16 14 -16 29 -1 9 9 21 14 26 11 14 -9 11 -25 -5 -25
-13 0 -26 -28 -26 -57 0 -7 18 -17 41 -23 31 -9 43 -18 51 -41 5 -16 18 -34
28 -39 23 -12 33 -13 26 -2 -6 10 25 9 42 -2 6 -4 12 -12 12 -17 0 -6 -4 -7
-10 -4 -5 3 -17 -4 -27 -16 -10 -12 -26 -30 -35 -40 -17 -18 -16 -19 10 -25
48 -10 54 -14 48 -29 -3 -8 0 -15 7 -15 29 -1 38 -16 26 -43 -7 -15 -18 -27
-26 -27 -17 0 -17 -15 2 -30 8 -7 12 -16 9 -21 -3 -5 2 -6 10 -3 11 4 16 0 16
-10 0 -10 -9 -16 -25 -16 -14 0 -25 -4 -25 -10 0 -5 -9 -10 -21 -10 -15 0 -19
5 -15 15 10 27 -12 16 -42 -21 -17 -20 -28 -43 -25 -50 3 -8 -1 -22 -8 -31 -8
-8 -12 -26 -11 -38 4 -30 -11 -38 -53 -31 -26 5 -33 11 -28 23 5 13 3 13 -20
-2 -15 -9 -27 -25 -27 -35 0 -13 -6 -16 -27 -12 -16 3 -32 11 -36 18 -4 8 -14
14 -21 14 -8 0 -16 7 -20 15 -3 8 -11 14 -17 13 -6 -2 -14 3 -16 10 -3 8 3 11
19 10 21 -3 23 0 20 39 -1 23 2 44 8 48 15 9 12 22 -5 22 -8 0 -15 -6 -15 -14
0 -7 -9 -13 -20 -13 -16 0 -20 -7 -20 -37 0 -21 -7 -47 -15 -57 -8 -11 -15
-14 -15 -8 0 7 -4 12 -9 12 -5 0 -7 -9 -4 -21 4 -15 0 -22 -16 -26 -11 -3 -21
-11 -21 -19 0 -7 -5 -16 -12 -20 -8 -5 -9 -2 -5 9 6 17 -3 22 -32 17 -9 -1
-12 5 -8 20 3 13 0 23 -9 27 -8 3 -14 17 -14 32 0 23 -4 26 -35 27 -31 1 -41
-5 -72 -42 -40 -50 -68 -58 -61 -19 7 34 -28 66 -65 60 -18 -4 -33 1 -47 15
-22 22 -25 37 -11 59 6 10 4 25 -5 42 -9 19 -11 30 -3 34 5 4 9 17 7 28 -1 12
1 27 4 32 4 6 8 36 10 67 1 31 5 55 7 53 8 -8 41 16 41 30 0 19 -14 19 -30 0
-16 -19 -33 -8 -27 17 4 14 -2 22 -21 31 -15 6 -28 12 -30 13 -2 1 0 14 4 30
l7 28 10 -25 9 -24 10 22 c13 28 2 65 -12 43 -7 -10 -10 21 -11 90 0 58 -2
125 -4 150 -2 25 -9 149 -15 275 -12 250 -50 561 -78 628 -43 103 -82 164
-140 214 -63 55 -97 73 -138 73 -13 0 -24 4 -24 8 0 8 -103 46 -125 47 -5 0
-17 6 -25 14 -13 13 -15 12 -18 -3 -3 -16 -5 -16 -19 3 -24 35 -89 63 -140 60
-45 -3 -46 -2 -73 45 -31 53 -31 52 -45 -47 -5 -30 -19 -62 -39 -89 -17 -22
-36 -50 -42 -60 -7 -11 -24 -26 -39 -34 -30 -15 -70 -10 -59 8 5 7 1 9 -9 5
-24 -9 -9 23 22 48 42 34 79 76 77 90 -3 19 -26 45 -41 45 -12 0 -9 50 5 60 3
3 19 22 34 43 16 20 35 37 43 37 8 0 23 10 33 23 25 30 33 18 21 -32 -5 -24
-5 -41 0 -41 5 0 9 1 9 3 1 1 7 56 14 123 l13 120 41 43 c25 26 46 60 53 85 6
22 14 48 17 56 11 31 10 43 -2 56 -8 7 -16 10 -20 7 -3 -4 -6 8 -6 26 0 44
-22 91 -59 125 -17 17 -31 33 -31 37 0 3 15 10 33 14 31 8 31 8 -18 14 -63 8
-91 24 -110 61 -23 44 -19 51 20 34 19 -7 45 -14 57 -14 23 1 23 1 -2 15 -14
8 -20 15 -15 15 6 1 29 5 52 9 23 5 40 5 38 0 -3 -4 10 -5 30 -2 44 7 55 -14
32 -63 -21 -43 -13 -45 9 -1 11 20 19 27 22 18 9 -26 31 48 37 126 13 152 10
205 -13 255 -12 26 -22 49 -22 52 0 3 -11 17 -25 32 -14 15 -25 30 -25 35 0
19 -108 110 -143 120 -21 5 -46 13 -55 16 -15 6 -15 4 -4 -10 12 -14 10 -15
-25 -10 -21 3 -40 10 -41 15 -2 4 -8 5 -13 2 -6 -3 -33 -3 -61 1 -49 7 -50 8
-28 20 24 13 23 13 -12 13 -20 0 -38 -1 -40 -3z m199 -61 c-3 -3 -12 -4 -19
-1 -8 3 -5 6 6 6 11 1 17 -2 13 -5z m63 -14 c11 -7 7 -10 -18 -10 -20 0 -31 4
-27 10 8 13 26 13 45 0z m87 -149 c55 -40 106 -144 111 -227 3 -48 1 -64 -9
-64 -7 0 -46 12 -87 26 -93 32 -174 32 -182 0 -9 -32 -53 -33 -68 -2 -11 24
-13 25 -104 22 -119 -4 -224 -23 -267 -47 -18 -11 -36 -17 -39 -15 -3 3 3 27
13 53 10 26 17 68 16 95 -1 32 5 60 16 79 15 26 22 30 48 25 16 -4 32 -11 36
-18 4 -7 11 -3 18 11 17 30 29 26 33 -11 3 -29 6 -33 28 -30 14 2 36 14 50 27
32 29 75 51 120 60 19 4 60 15 90 25 80 27 131 24 177 -9z m51 -309 c2 -6 10
-8 18 -5 21 8 44 -16 43 -46 -1 -14 -3 -19 -5 -11 -6 19 -50 40 -83 40 -35 0
-71 11 -71 20 0 19 92 20 98 2z m-608 -13 c0 -6 -10 -9 -22 -7 -11 2 -23 -3
-25 -9 -3 -7 2 -13 10 -13 9 0 13 -9 12 -24 -2 -18 1 -23 14 -19 12 3 20 -6
30 -32 7 -19 23 -43 37 -52 19 -12 22 -19 13 -29 -9 -11 -7 -14 9 -14 30 0 53
-11 46 -21 -3 -5 -21 -7 -40 -3 -31 6 -38 2 -69 -30 -19 -21 -39 -34 -45 -31
-5 3 -10 0 -10 -7 0 -8 -9 -21 -20 -31 -12 -10 -21 -31 -21 -49 -1 -24 -3 -27
-6 -10 -2 12 -7 22 -11 22 -14 0 -4 78 13 104 16 23 16 26 1 26 -9 0 -16 7
-16 15 0 8 -4 15 -10 15 -23 0 4 144 30 160 8 5 11 12 7 16 -8 8 54 44 66 37
4 -2 7 -9 7 -14z m376 -4 c3 -41 50 -146 123 -275 17 -30 31 -61 31 -67 0 -15
-120 -17 -185 -4 l-40 9 35 1 c28 1 45 10 80 46 24 24 42 47 39 49 -3 3 -44
12 -92 20 -62 11 -95 13 -113 5 -15 -5 -29 -7 -32 -5 -7 7 26 56 38 56 6 0 10
8 10 18 0 9 12 35 25 57 14 22 25 52 25 66 0 14 3 29 7 33 10 10 48 3 49 -9z
m-228 -62 c29 -5 46 -23 21 -23 -5 0 -8 -4 -4 -10 8 -13 36 0 28 14 -3 6 -1 6
8 -1 7 -7 21 -13 32 -13 29 0 17 -31 -23 -58 -60 -41 -148 -14 -176 53 -8 19
-14 37 -14 40 0 8 35 6 46 -4 5 -5 20 -12 34 -16 l25 -8 -25 23 c-21 18 -22
21 -5 15 11 -4 35 -9 53 -12z m-338 -95 c-25 -9 -35 -50 -20 -78 6 -12 9 -24
6 -27 -12 -12 -27 54 -21 93 6 40 7 41 30 30 22 -10 23 -11 5 -18z m41 -75
c-9 -16 -10 -16 -11 -1 0 9 3 25 7 35 7 16 8 17 11 1 2 -10 -1 -25 -7 -35z
m419 -163 c0 -5 -2 -10 -4 -10 -3 0 -8 5 -11 10 -3 6 -1 10 4 10 6 0 11 -4 11
-10z m171 -4 c1 -6 1 -14 0 -19 -1 -4 17 2 40 13 29 15 44 18 53 11 7 -6 16
-8 19 -4 4 3 7 -2 7 -13 0 -16 2 -16 10 -4 5 8 12 12 15 8 4 -3 -4 -23 -18
-45 -13 -21 -30 -56 -38 -78 -23 -69 -50 -100 -84 -99 -16 0 -37 4 -46 8 -9 4
-39 4 -65 -1 -27 -5 -80 -5 -117 -2 -72 8 -107 27 -107 60 0 10 -4 20 -9 23
-10 7 -21 66 -11 66 3 0 11 -5 18 -12 9 -9 18 -9 36 0 20 9 32 8 53 -3 110
-55 110 -55 135 -36 13 10 38 26 56 35 41 21 41 34 0 28 -30 -5 -32 -3 -19 12
7 9 25 16 39 16 42 0 10 22 -35 25 -21 1 -48 3 -60 4 -13 0 -23 5 -23 10 0 13
150 10 151 -3z m-721 -478 c0 -7 21 -39 46 -71 25 -32 44 -60 42 -63 -3 -2
-35 25 -73 59 -43 40 -66 67 -61 75 10 16 46 15 46 0z m423 -79 c3 -10 1 -17
-4 -13 -5 3 -9 -2 -9 -10 0 -9 -6 -16 -14 -16 -8 0 -12 9 -11 23 1 12 3 27 4
34 2 18 28 5 34 -18z m137 -96 c0 -7 -4 -13 -8 -13 -15 0 -32 24 -32 44 0 18
1 19 20 1 11 -10 20 -24 20 -32z m-755 -64 c-6 -9 -35 -1 -35 10 0 4 3 11 7
14 8 9 34 -13 28 -24z m55 -15 c0 -2 -7 -4 -15 -4 -8 0 -15 4 -15 10 0 5 7 7
15 4 8 -4 15 -8 15 -10z m-85 -14 c-3 -5 -10 -10 -16 -10 -5 0 -9 5 -9 10 0 6
7 10 16 10 8 0 12 -4 9 -10z m1200 -620 c3 -5 -1 -10 -9 -10 -9 0 -16 -3 -16
-7 0 -5 -3 -18 -6 -31 -6 -22 -5 -22 49 -16 49 6 55 4 61 -14 16 -49 -30 -112
-80 -112 -89 0 -140 130 -72 182 25 19 63 24 73 8z m49 -29 c18 -19 17 -20
-23 -19 -46 0 -52 10 -18 26 12 6 22 11 23 11 0 1 9 -8 18 -18z m-2755 -46 c1
-2 1 -8 -3 -13 -8 -13 -89 1 -94 17 -4 11 5 12 44 6 27 -4 51 -8 53 -10z
m-299 -20 c-7 -8 -25 -15 -41 -15 -19 0 -29 5 -29 15 0 11 11 15 41 15 36 0
40 -2 29 -15z m365 5 c3 -5 -1 -10 -9 -10 -8 0 -18 5 -21 10 -3 6 1 10 9 10 8
0 18 -4 21 -10z m-422 -65 c68 -66 63 -98 -10 -65 -72 32 -99 101 -43 109 3 1
27 -19 53 -44z m223 34 c31 1 74 -22 63 -33 -3 -4 -19 -2 -34 4 -16 6 -34 9
-42 6 -7 -3 -13 -1 -13 4 0 6 -9 10 -19 10 -11 0 -23 5 -27 12 -5 8 0 9 17 3
13 -4 38 -7 55 -6z m-48 -91 c-5 -15 -58 -24 -58 -9 0 11 17 19 43 20 11 1 17
-4 15 -11z m126 -23 c-3 -7 -19 -18 -35 -24 -16 -5 -28 -14 -27 -18 3 -11 -19
-73 -26 -73 -3 0 -19 14 -36 32 -34 35 -25 52 20 41 l24 -6 -18 27 c-21 33
-16 42 14 26 24 -13 70 -6 70 11 0 6 4 8 10 4 5 -3 7 -12 4 -20z m129 -107
c38 -23 71 -48 74 -56 13 -33 -59 -56 -115 -38 -33 11 -24 40 13 44 32 4 60
22 34 22 -18 0 -89 48 -89 60 0 16 10 12 83 -32z m-91 -55 c22 -20 24 -43 3
-43 -21 0 -19 -20 5 -45 17 -18 18 -24 7 -39 -16 -22 -45 -12 -58 20 -5 14
-17 24 -28 24 -33 0 -72 22 -69 39 2 11 17 17 46 19 34 3 42 7 42 23 0 24 27
25 52 2z m-347 -3 c3 -5 -3 -10 -14 -10 -11 0 -23 5 -26 10 -3 6 3 10 14 10
11 0 23 -4 26 -10z m579 -5 c4 -10 -1 -15 -14 -15 -11 0 -20 7 -20 15 0 8 6
15 14 15 8 0 16 -7 20 -15z m-396 -76 c-3 -8 -7 -3 -11 10 -4 17 -3 21 5 13 5
-5 8 -16 6 -23z m4450 -107 c10 -10 23 -17 29 -15 14 5 53 -27 53 -42 0 -17
-80 -12 -94 6 -6 8 -19 18 -28 22 -10 3 -18 16 -18 27 0 26 33 27 58 2z m132
-97 c0 -8 -7 -15 -15 -15 -16 0 -20 12 -8 23 11 12 23 8 23 -8z m-4660 -5 c0
-5 11 -12 25 -16 14 -3 25 -10 25 -15 0 -22 -102 -40 -114 -20 -9 15 3 38 27
49 28 14 37 14 37 2z m476 -11 c8 -14 -18 -31 -30 -19 -9 9 0 30 14 30 5 0 12
-5 16 -11z m44 -52 c0 -18 6 -39 13 -46 10 -12 8 -12 -8 -6 -11 5 -42 8 -68 7
-46 -3 -48 -2 -37 18 15 28 37 35 57 19 15 -12 16 -12 10 4 -8 23 -1 37 19 37
9 0 14 -11 14 -33z m4230 -7 c0 -5 -4 -10 -10 -10 -5 0 -10 5 -10 10 0 6 5 10
10 10 6 0 10 -4 10 -10z m-4674 -25 c4 -8 1 -21 -5 -29 -9 -11 -6 -12 14 -8
14 2 25 0 25 -6 0 -20 -71 -19 -96 1 -30 23 -30 35 -1 47 34 13 57 12 63 -5z
m4632 -37 c17 -17 15 -28 -7 -28 -11 0 -23 -5 -26 -10 -7 -12 34 -30 53 -23
14 6 17 -23 2 -32 -7 -4 -6 -13 1 -26 23 -43 -44 -119 -97 -111 -16 2 -20 8
-16 27 4 22 1 25 -24 23 -16 -1 -34 -5 -40 -10 -8 -6 -11 0 -11 18 0 18 6 28
18 31 32 9 20 29 -13 24 -5 0 -8 5 -8 13 0 8 -6 16 -13 19 -18 7 -20 54 -2 54
9 0 15 -10 15 -24 0 -21 2 -22 20 -11 14 9 16 14 7 20 -16 11 8 26 53 33 19 4
42 10 50 15 20 12 24 12 38 -2z m-4342 -13 c3 -8 -5 -29 -17 -47 -41 -57 -79
-136 -67 -140 7 -3 8 -15 4 -32 -6 -23 -11 -27 -34 -24 -25 3 -27 0 -28 -32
-1 -19 -2 -40 -3 -47 -2 -18 -30 -4 -42 20 -9 16 -8 23 10 36 l21 16 -23 35
c-25 36 -25 60 -1 60 7 0 19 9 26 20 9 14 24 20 48 20 l35 0 -25 20 c-14 11
-30 20 -36 20 -18 0 -26 32 -12 42 7 4 21 8 31 8 9 0 26 9 37 20 23 23 68 26
76 5z m-513 -34 c3 -11 2 -22 -1 -25 -9 -10 -31 15 -25 30 7 20 20 17 26 -5z
m637 -27 c0 -15 -6 -24 -15 -24 -15 0 -21 40 -9 53 12 11 24 -3 24 -29z m-570
-7 c0 -14 -20 -37 -32 -37 -10 0 -11 34 -1 43 11 12 33 8 33 -6z m-30 -66 c0
-6 -4 -13 -10 -16 -5 -3 -10 1 -10 9 0 9 5 16 10 16 6 0 10 -4 10 -9z m4197
-28 c-12 -12 -19 -13 -38 -3 -21 12 -22 13 -4 26 13 10 23 10 38 3 17 -10 18
-13 4 -26z m-4047 -38 c-13 -14 -26 -22 -29 -19 -3 3 5 14 19 24 34 27 38 25
10 -5z m487 -78 c-6 -59 6 -97 29 -97 11 0 14 -5 9 -17 -3 -10 -9 -30 -12 -46
-3 -15 -10 -30 -16 -34 -6 -4 -8 3 -4 18 4 14 0 30 -9 40 -10 11 -17 38 -17
68 -1 28 -6 51 -10 51 -4 0 -12 10 -17 23 -6 17 -4 26 12 39 30 26 40 12 35
-45z m-487 34 c0 -15 -23 -28 -62 -35 -39 -7 -55 9 -20 20 9 3 24 9 32 14 20
12 50 12 50 1z m4644 0 c3 -5 -1 -11 -9 -15 -15 -6 -29 7 -18 18 9 9 21 8 27
-3z m61 -10 c6 -11 -29 -33 -39 -24 -7 7 12 33 25 33 4 0 10 -4 14 -9z m-4275
-7 c0 -3 -8 -16 -18 -28 -14 -19 -20 -21 -30 -10 -17 18 -15 24 8 24 11 0 20
5 20 10 0 6 5 10 10 10 6 0 10 -3 10 -6z m-635 -94 c3 -5 -1 -10 -10 -10 -9 0
-13 5 -10 10 3 6 8 10 10 10 2 0 7 -4 10 -10z m142 -4 c12 -12 -8 -36 -29 -36
-30 0 -70 28 -62 42 6 10 80 5 91 -6z m413 -32 c0 -17 -22 -14 -28 4 -2 7 3
12 12 12 9 0 16 -7 16 -16z m4144 -50 c11 -29 6 -34 -34 -31 -46 2 -49 8 -17
30 29 21 43 21 51 1z m-834 -64 c0 -16 -5 -30 -11 -30 -6 0 -9 6 -6 13 2 6 -2
20 -11 30 -14 15 -13 17 6 17 18 0 22 -6 22 -30z m200 9 c0 -5 -7 -12 -16 -16
-19 -7 -38 18 -22 28 14 9 38 0 38 -12z m580 6 c0 -9 -6 -12 -16 -8 -13 5 -13
7 -2 14 17 11 18 11 18 -6z m151 -26 c3 -6 21 -12 39 -14 39 -5 47 -12 33 -26
-8 -8 -17 -8 -31 0 -11 6 -32 11 -47 11 -14 0 -40 7 -57 16 -30 15 -31 17 -14
30 19 13 64 3 77 -17z m-4233 -20 c-6 -17 -22 -12 -30 10 -7 19 -5 20 13 11
11 -6 19 -16 17 -21z m-218 -24 c0 -8 -6 -15 -14 -15 -17 0 -28 14 -19 24 12
12 33 6 33 -9z m4119 -3 c7 -13 6 -19 -2 -19 -7 0 -13 9 -13 19 0 10 1 18 3
18 1 0 7 -8 12 -18z m-568 -17 c-2 -15 -54 -26 -66 -13 -7 7 -6 9 5 6 8 -3 21
2 29 9 14 15 33 14 32 -2z m246 -15 c9 0 13 -3 10 -6 -3 -4 -2 -15 3 -25 8
-14 6 -21 -11 -29 -16 -9 -24 -8 -40 6 -16 14 -18 25 -10 63 1 2 8 0 17 -3 9
-3 23 -6 31 -6z m-3896 -42 c7 -12 6 -18 -1 -18 -22 0 -80 39 -80 53 0 13 72
-19 81 -35z m4096 36 c-3 -3 -12 -4 -19 -1 -8 3 -5 6 6 6 11 1 17 -2 13 -5z
m574 -17 c-12 -12 -45 -1 -37 12 3 5 15 7 27 4 13 -4 17 -9 10 -16z m-4341 -4
c0 -9 10 -27 22 -40 19 -20 20 -25 8 -33 -8 -5 -10 -10 -5 -10 6 0 18 9 28 20
16 19 44 19 32 0 -3 -4 0 -19 5 -32 10 -22 10 -22 5 5 -3 17 -1 27 7 27 6 0 4
6 -6 13 -40 29 15 63 62 38 9 -5 31 -14 47 -21 36 -13 105 -75 105 -94 0 -7 7
-19 15 -26 8 -7 15 -17 15 -23 0 -6 8 -19 17 -29 15 -16 15 -18 1 -13 -21 8
-33 -12 -17 -31 27 -33 -8 -27 -81 15 -8 5 -27 15 -43 22 -18 8 -23 15 -16 20
7 4 18 5 24 2 15 -5 45 23 45 42 0 7 -13 18 -30 25 -16 7 -35 18 -41 26 -6 8
-17 14 -23 14 -6 -1 2 -11 18 -24 l29 -24 -24 -7 c-13 -4 -32 -16 -42 -26 -21
-22 -36 -24 -41 -6 -2 6 -7 21 -12 32 -6 18 -8 18 -11 3 -3 -10 -13 -18 -24
-18 -23 0 -25 -15 -4 -24 8 -3 15 -1 15 4 0 5 7 7 15 4 8 -4 15 -17 15 -29 0
-31 16 -40 36 -21 18 19 34 12 34 -13 0 -12 7 -18 17 -17 22 1 48 -45 39 -70
-7 -19 -8 -19 -24 1 -39 47 -117 55 -106 11 8 -33 -12 -77 -31 -70 -12 5 -14
14 -10 34 6 26 4 28 -17 23 -13 -3 -31 -14 -41 -24 -17 -19 -30 -23 -54 -20
-7 1 -13 -2 -13 -8 0 -5 -6 -16 -12 -23 -41 -43 -41 -46 -1 -58 21 -7 51 -26
66 -44 19 -20 30 -27 34 -18 7 17 23 5 17 -13 -3 -8 11 -34 31 -60 21 -25 32
-45 26 -45 -6 0 -11 4 -11 9 0 5 -10 7 -22 3 -16 -4 -29 3 -50 28 -28 34 -28
34 -74 22 -25 -7 -51 -9 -57 -5 -7 4 -20 6 -29 5 -9 -2 -19 5 -22 16 -4 10
-18 25 -31 32 -14 7 -25 22 -25 31 0 16 4 17 26 9 39 -15 47 -12 40 15 -5 21
-2 27 19 35 14 5 25 13 25 17 0 5 14 23 31 41 l30 32 -25 0 c-14 0 -33 -9 -44
-20 -15 -17 -23 -18 -54 -9 -33 8 -39 7 -64 -16 -17 -15 -34 -23 -43 -20 -23
9 -23 9 -53 1 -16 -5 -25 -12 -22 -17 9 -15 -50 11 -72 32 -11 11 -35 21 -52
22 -18 1 -32 5 -32 10 0 4 4 7 8 7 10 0 10 75 0 85 -4 4 -5 20 -2 35 4 15 1
31 -5 34 -6 4 -11 12 -11 18 0 6 11 3 25 -6 13 -9 31 -16 39 -16 7 0 16 -7 20
-15 6 -17 48 -20 77 -4 16 8 18 13 8 25 -6 8 -16 14 -21 14 -5 0 -20 8 -35 17
-14 10 -33 18 -41 19 -8 2 -19 7 -25 13 -8 8 3 9 38 4 28 -3 56 -13 64 -20 19
-20 36 -10 33 18 -8 73 -17 68 93 54 37 -5 42 -2 58 24 17 29 18 30 46 14 15
-9 28 -24 27 -32 -1 -12 7 -15 31 -13 33 3 57 -21 50 -50 -2 -7 -2 -10 0 -5 3
4 12 7 21 7 17 0 49 39 35 41 -5 1 -18 3 -31 4 -29 3 -38 12 -46 48 -5 23 -3
27 14 27 11 0 19 3 19 8 -3 14 1 22 11 22 6 0 10 -8 10 -17z m3385 7 c-3 -5
-12 -10 -18 -10 -7 0 -6 4 3 10 19 12 23 12 15 0z m945 -40 c0 -5 -2 -10 -4
-10 -3 0 -8 5 -11 10 -3 6 -1 10 4 10 6 0 11 -4 11 -10z m-4006 -26 c4 -10 1
-14 -6 -12 -15 5 -23 28 -10 28 5 0 13 -7 16 -16z m3876 6 c0 -5 -7 -10 -15
-10 -8 0 -15 5 -15 10 0 6 7 10 15 10 8 0 15 -4 15 -10z m-4760 -120 c0 -5 -4
-10 -10 -10 -5 0 -10 5 -10 10 0 6 5 10 10 10 6 0 10 -4 10 -10z m130 0 c0 -5
-2 -10 -4 -10 -3 0 -8 5 -11 10 -3 6 -1 10 4 10 6 0 11 -4 11 -10z m3724 -15
c4 -13 2 -14 -14 -5 -23 13 -26 20 -6 20 8 0 16 -7 20 -15z m-34 -86 c0 -5 -4
-9 -10 -9 -5 0 -10 7 -10 16 0 8 5 12 10 9 6 -3 10 -10 10 -16z m65 -42 c-15
-8 -55 8 -55 22 0 17 13 18 40 3 23 -13 26 -19 15 -25z m365 -29 c0 -14 -13
-9 -37 14 -33 31 -28 43 7 16 17 -12 30 -25 30 -30z m-3510 2 c0 -5 -7 -10
-15 -10 -8 0 -15 5 -15 10 0 6 7 10 15 10 8 0 15 -4 15 -10z m-705 -20 c3 -5
-3 -10 -14 -10 -12 0 -21 5 -21 10 0 6 6 10 14 10 8 0 18 -4 21 -10z m4063
-19 c3 -8 -1 -12 -9 -9 -7 2 -15 10 -17 17 -3 8 1 12 9 9 7 -2 15 -10 17 -17z
m-238 5 c0 -16 -14 -36 -26 -36 -14 0 -19 22 -7 33 7 8 33 10 33 3z m440 -6
c0 -5 -5 -10 -11 -10 -5 0 -7 5 -4 10 3 6 8 10 11 10 2 0 4 -4 4 -10z m-290
-24 c0 -3 -4 -8 -10 -11 -5 -3 -10 -1 -10 4 0 6 5 11 10 11 6 0 10 -2 10 -4z
m-3725 -16 c11 -17 -5 -32 -21 -19 -8 6 -14 15 -14 20 0 12 27 11 35 -1z m75
-11 c0 -6 -4 -7 -10 -4 -5 3 -10 11 -10 16 0 6 5 7 10 4 6 -3 10 -11 10 -16z
m590 17 c0 -3 -4 -8 -10 -11 -5 -3 -10 -1 -10 4 0 6 5 11 10 11 6 0 10 -2 10
-4z m-918 -61 c0 -5 -5 -11 -11 -13 -6 -2 -11 4 -11 13 0 9 5 15 11 13 6 -2
11 -8 11 -13z m168 6 c0 -5 -13 -15 -30 -23 -16 -7 -30 -16 -30 -20 0 -5 -7
-8 -15 -8 -21 0 -19 19 3 27 9 4 21 12 25 20 9 15 47 18 47 4z m84 -16 c3 -9
-1 -18 -10 -22 -19 -7 -39 11 -30 26 10 16 33 13 40 -4z m4356 -5 c0 -5 -7 -7
-15 -4 -8 4 -15 8 -15 10 0 2 7 4 15 4 8 0 15 -4 15 -10z m-360 -20 c0 -11 -4
-20 -10 -20 -5 0 -10 6 -10 14 0 8 -6 17 -12 19 -7 3 -3 6 10 6 16 1 22 -5 22
-19z m-4275 -20 c3 -5 1 -10 -5 -10 -7 0 -9 -8 -5 -19 3 -11 1 -22 -5 -26 -5
-3 -10 0 -10 7 0 7 -3 23 -6 36 -5 16 -2 22 9 22 9 0 19 -4 22 -10z m3925 6
c0 -3 -4 -8 -10 -11 -5 -3 -10 -1 -10 4 0 6 5 11 10 11 6 0 10 -2 10 -4z m823
-29 c4 3 7 -3 7 -15 0 -18 -6 -22 -29 -22 -17 0 -33 -4 -36 -10 -3 -5 -1 -10
5 -10 6 0 9 -4 5 -9 -3 -5 -1 -12 5 -16 11 -7 5 -47 -12 -83 -15 -30 -48 -29
-48 1 0 13 -5 28 -11 34 -20 20 1 36 22 17 18 -16 19 -16 19 4 0 12 -9 26 -20
32 -17 9 -18 14 -9 33 6 12 23 32 37 44 23 20 28 21 42 8 9 -8 20 -12 23 -8z
m-4588 2 c11 -17 -1 -21 -15 -4 -8 9 -8 15 -2 15 6 0 14 -5 17 -11z m3906 -43
c-9 -5 -18 -12 -21 -16 -3 -3 -13 2 -22 12 -15 15 -16 18 -3 18 9 0 18 6 21
14 5 12 8 12 23 -2 15 -15 16 -18 2 -26z m-3831 24 c0 -5 -4 -10 -10 -10 -5 0
-10 5 -10 10 0 6 5 10 10 10 6 0 10 -4 10 -10z m3705 -20 c3 -5 -1 -10 -9 -10
-9 0 -16 5 -16 10 0 6 4 10 9 10 6 0 13 -4 16 -10z m235 -41 c0 -5 -11 -9 -25
-9 -23 0 -24 2 -15 21 9 16 14 18 26 8 8 -6 14 -15 14 -20z m-4048 -61 c-5
-21 -15 -22 -43 -7 -13 7 -18 16 -14 29 3 10 1 22 -6 25 -8 6 -8 10 2 16 19
11 68 -39 61 -63z m398 32 c10 -5 17 -22 18 -40 1 -26 -2 -30 -19 -25 -11 4
-19 2 -19 -4 0 -6 -7 -11 -15 -11 -12 0 -13 4 -6 19 8 14 6 23 -9 36 -11 10
-18 21 -16 24 7 10 48 11 66 1z m104 -15 c-4 -8 -9 -15 -13 -15 -4 0 -8 7 -8
15 0 8 6 15 13 15 8 0 11 -6 8 -15z m-323 -28 c-2 -24 -15 -57 -22 -57 -11 0
-12 53 -2 64 8 8 25 3 24 -7z m563 -13 c4 -11 1 -14 -11 -12 -10 2 -19 11 -21
21 -4 21 24 13 32 -9z m-679 6 c-3 -5 -10 -10 -16 -10 -5 0 -9 5 -9 10 0 6 7
10 16 10 8 0 12 -4 9 -10z m3930 0 c3 -5 1 -10 -4 -10 -6 0 -11 5 -11 10 0 6
2 10 4 10 3 0 8 -4 11 -10z m306 -5 c-1 -9 -6 -11 -56 -17 -33 -5 -33 16 0 23
38 9 56 7 56 -6z m-3971 1 c0 -2 3 -11 6 -19 3 -8 -1 -17 -9 -20 -10 -4 -16 3
-20 19 -3 16 0 24 9 24 8 0 14 -2 14 -4z"/>
<path d="M3183 2153 c-20 -7 -15 -23 7 -23 11 0 20 4 20 9 0 13 -12 19 -27 14z"/>
<path d="M4817 1364 c-9 -10 2 -24 19 -24 8 0 14 7 14 15 0 15 -21 21 -33 9z"/>
<path d="M4905 1340 c3 -5 11 -10 16 -10 6 0 7 5 4 10 -3 6 -11 10 -16 10 -6
0 -7 -4 -4 -10z"/>
<path d="M457 653 c-12 -21 -4 -73 14 -89 18 -16 19 -16 19 10 0 23 3 26 20
21 28 -9 25 11 -6 40 -28 26 -40 30 -47 18z"/>
<path d="M355 590 c3 -5 10 -10 16 -10 5 0 9 5 9 10 0 6 -7 10 -16 10 -8 0
-12 -4 -9 -10z"/>
<path d="M606 593 c-4 -4 -15 -8 -24 -8 -9 0 -17 -7 -17 -15 0 -10 8 -14 25
-12 31 3 47 19 34 32 -6 6 -14 7 -18 3z"/>
<path d="M640 547 c0 -14 19 -37 32 -37 16 0 7 30 -12 40 -15 8 -20 8 -20 -3z"/>
<path d="M280 535 c-10 -12 -10 -18 -1 -29 9 -11 9 -16 1 -21 -7 -4 -10 -16
-7 -26 3 -11 0 -19 -5 -19 -6 0 1 -10 16 -21 33 -26 44 -19 22 13 -21 30 -20
59 3 65 16 4 17 8 7 29 -13 28 -19 29 -36 9z"/>
<path d="M420 473 c-56 -7 -57 -21 -1 -21 38 -1 51 3 51 14 0 8 -3 13 -7 12
-5 0 -24 -3 -43 -5z"/>
<path d="M328 464 c-9 -8 13 -54 24 -54 5 0 6 10 3 23 -9 27 -19 39 -27 31z"/>
<path d="M495 310 c-3 -5 1 -10 9 -10 9 0 16 5 16 10 0 6 -4 10 -9 10 -6 0
-13 -4 -16 -10z"/>
<path d="M563 253 c9 -9 20 -13 24 -9 4 4 1 11 -7 16 -25 16 -35 11 -17 -7z"/>
<path d="M450 4535 c-12 -14 -11 -18 0 -25 10 -6 18 -4 23 6 13 23 -7 39 -23
19z"/>
<path d="M2793 4543 c9 -2 23 -2 30 0 6 3 -1 5 -18 5 -16 0 -22 -2 -12 -5z"/>
<path d="M316 4505 c-4 -19 -11 -35 -17 -35 -6 0 -7 -4 -4 -10 4 -6 16 -4 31
6 22 15 24 15 24 0 0 -9 -8 -16 -19 -16 -21 0 -37 -17 -27 -27 3 -4 18 -1 32
6 22 10 30 9 45 -5 16 -15 19 -15 19 -2 0 9 7 21 15 28 19 16 19 44 0 60 -13
11 -20 10 -41 -1 -21 -11 -27 -11 -34 1 -5 8 -6 18 -4 22 3 4 1 8 -4 8 -6 0
-13 -16 -16 -35z"/>
<path d="M1437 4508 c-3 -18 -8 -44 -13 -58 -7 -25 -7 -25 14 -6 15 13 20 29
19 57 -2 47 -13 51 -20 7z"/>
<path d="M3810 4496 c-17 -17 -11 -43 11 -49 11 -3 23 -15 26 -26 3 -12 10
-21 17 -21 14 0 36 47 30 63 -8 20 -72 45 -84 33z"/>
<path d="M65 4476 c-11 -8 -30 -12 -42 -9 -21 5 -23 1 -23 -31 0 -39 18 -48
40 -21 7 8 19 15 26 15 8 0 14 5 14 10 0 6 10 8 23 5 15 -4 28 -1 36 9 12 14
9 16 -17 16 -17 0 -32 5 -34 10 -2 7 -11 5 -23 -4z"/>
<path d="M586 4475 c10 -8 25 -15 33 -15 11 0 9 4 -5 15 -10 8 -25 15 -33 15
-11 0 -9 -4 5 -15z"/>
<path d="M520 4475 c0 -9 31 -34 43 -35 4 0 7 7 7 15 0 8 -4 15 -9 15 -5 0
-16 3 -25 6 -9 3 -16 3 -16 -1z"/>
<path d="M766 4461 c-9 -14 32 -34 51 -26 10 3 13 9 7 14 -16 15 -52 22 -58
12z"/>
<path d="M81 4394 c-18 -21 -20 -28 -10 -35 25 -16 49 -11 42 9 -6 16 -5 16
13 0 19 -16 64 -15 64 1 0 17 -28 40 -55 45 -25 6 -35 2 -54 -20z"/>
<path d="M732 4412 c-17 -11 31 -34 53 -26 22 9 18 21 -7 28 -29 7 -30 7 -46
-2z"/>
<path d="M1482 4379 c-7 -11 -19 -19 -25 -16 -7 2 -21 1 -32 -4 -18 -7 -17 -8
5 -7 14 0 33 -3 42 -7 19 -8 32 12 26 40 -2 13 -5 12 -16 -6z"/>
<path d="M390 4362 c0 -11 -3 -28 -6 -37 -5 -13 -2 -16 12 -13 22 4 27 59 7
66 -8 2 -13 -5 -13 -16z"/>
<path d="M572 4351 c-7 -4 -12 -14 -10 -22 2 -9 -4 -13 -18 -11 -29 4 -37 -22
-14 -43 22 -20 40 -12 40 16 0 11 9 23 20 27 17 6 18 10 8 25 -8 10 -18 14
-26 8z"/>
<path d="M695 4341 c-6 -10 7 -15 28 -12 4 0 7 -6 7 -14 0 -19 14 -19 30 0 16
19 14 21 -27 29 -18 4 -34 3 -38 -3z"/>
<path d="M895 4340 c-4 -6 -16 -8 -28 -4 -19 6 -19 4 5 -15 14 -11 31 -21 37
-21 6 0 15 -10 22 -21 10 -20 9 -21 -9 -17 -18 5 -19 4 -9 -13 10 -16 9 -21
-3 -29 -13 -8 -12 -10 3 -10 9 0 26 6 37 12 15 10 22 10 32 0 9 -9 8 -12 -5
-12 -12 0 -17 -8 -17 -26 0 -20 4 -25 16 -20 9 3 27 6 40 6 24 0 24 1 10 28
-15 28 -14 28 14 24 25 -4 28 -1 23 17 -3 12 -1 21 6 21 6 0 11 5 11 10 0 6
-13 9 -28 8 -15 -1 -34 2 -41 7 -10 5 -12 4 -7 -4 14 -22 -26 -25 -45 -3 -9
12 -22 22 -28 22 -6 0 -11 11 -11 25 0 25 -14 33 -25 15z"/>
<path d="M780 4336 c0 -5 60 -36 68 -36 3 0 -3 9 -13 20 -16 17 -55 28 -55 16z"/>
<path d="M4665 4327 c-17 -13 -17 -14 4 -20 33 -8 55 2 40 19 -14 17 -20 17
-44 1z"/>
<path d="M4746 4331 c-4 -7 -5 -15 -2 -18 9 -9 19 4 14 18 -4 11 -6 11 -12 0z"/>
<path d="M112 4319 c2 -7 10 -15 17 -17 8 -3 12 1 9 9 -2 7 -10 15 -17 17 -8
3 -12 -1 -9 -9z"/>
<path d="M1050 4310 c0 -5 5 -10 11 -10 5 0 7 5 4 10 -3 6 -8 10 -11 10 -2 0
-4 -4 -4 -10z"/>
<path d="M4005 4308 c-7 -20 -1 -88 8 -88 4 0 7 8 7 18 0 10 7 28 16 40 8 12
12 27 9 32 -9 14 -35 12 -40 -2z"/>
<path d="M1371 4301 c-24 -4 -35 -12 -37 -26 -16 -102 -16 -115 -1 -115 9 0
19 10 23 23 12 40 22 46 54 34 16 -6 33 -8 37 -4 10 11 -17 27 -45 27 -30 0
-41 29 -16 47 10 7 24 11 32 8 7 -2 10 0 7 5 -3 6 -9 9 -13 9 -4 -1 -22 -4
-41 -8z"/>
<path d="M1855 4300 c-3 -5 -1 -10 4 -10 6 0 11 5 11 10 0 6 -2 10 -4 10 -3 0
-8 -4 -11 -10z"/>
<path d="M2 4280 c2 -13 12 -29 23 -35 11 -5 35 -20 52 -33 34 -24 34 -23 6
-71 -2 -2 -9 2 -18 9 -12 10 -16 10 -20 -2 -8 -21 9 -93 23 -94 24 -3 26 -4
15 -15 -6 -6 -9 -18 -6 -25 3 -8 -1 -14 -11 -14 -9 0 -16 5 -16 10 0 6 -6 10
-12 10 -7 -1 -1 -11 15 -23 32 -27 34 -37 8 -37 -11 0 -23 -4 -26 -10 -3 -5 0
-10 7 -10 7 0 26 -7 41 -15 27 -14 28 -13 22 5 -4 11 -2 20 3 20 5 0 12 -9 15
-20 4 -15 14 -20 41 -20 45 0 46 12 4 41 -47 33 -58 50 -55 84 3 37 38 46 69
18 15 -13 22 -15 25 -5 3 6 9 9 15 6 6 -4 6 1 -1 14 -12 23 -32 32 -71 32 -28
0 -29 1 -14 28 7 15 14 35 14 45 0 31 26 13 46 -33 15 -33 63 -90 76 -90 6 0
8 9 5 20 -4 16 -1 18 24 13 22 -4 29 -2 29 11 0 9 7 16 15 16 16 0 71 -35 90
-56 11 -13 96 -29 133 -25 12 1 22 -1 22 -6 0 -7 43 -31 117 -66 23 -10 37
-33 28 -47 -3 -5 -19 -12 -36 -15 -37 -8 -79 11 -79 35 0 21 -41 60 -62 60 -9
0 -19 -8 -23 -17 -6 -16 -8 -15 -16 5 -9 24 -38 29 -57 10 -9 -9 -12 -8 -12 4
0 21 -14 30 -34 22 -12 -5 -13 -10 -5 -25 5 -11 7 -24 4 -29 -3 -5 9 -2 25 7
29 14 32 14 46 -3 7 -11 13 -32 11 -49 -2 -29 -3 -30 -52 -29 -44 1 -51 -1
-51 -18 0 -14 7 -19 26 -17 14 1 36 -3 50 -8 18 -7 27 -7 32 1 5 8 11 7 20 -2
11 -11 10 -16 -6 -28 -11 -7 -18 -16 -15 -18 15 -15 101 -39 136 -37 23 0 45
-3 48 -9 3 -5 19 -10 35 -10 23 0 33 -7 45 -30 19 -36 35 -39 35 -7 0 15 9 29
25 37 23 12 28 11 52 -11 16 -13 31 -28 34 -33 11 -15 -2 -36 -22 -36 -10 0
-19 -4 -19 -9 0 -4 34 -14 75 -20 62 -10 79 -10 107 2 18 9 40 18 48 20 11 4
9 7 -7 12 -16 5 -23 16 -24 34 -2 51 -4 55 -29 68 -22 11 -23 13 -5 14 11 0
15 3 9 5 -9 4 -9 11 0 29 14 32 49 32 73 1 15 -18 23 -21 42 -14 13 4 26 6 29
3 11 -11 0 -110 -14 -126 -8 -8 -14 -27 -14 -42 0 -17 -7 -28 -20 -32 -16 -5
-17 -10 -8 -30 8 -18 7 -28 -8 -49 -23 -31 -34 -33 -34 -6 0 15 -7 20 -26 20
-20 0 -25 -4 -20 -16 3 -9 6 -18 6 -20 0 -2 7 -4 15 -4 8 0 24 -6 36 -12 17
-11 22 -10 30 5 6 9 15 17 21 17 6 0 16 8 23 17 11 15 14 14 30 -10 15 -23 45
-38 45 -22 0 14 -45 65 -57 65 -15 0 -18 36 -3 45 6 3 10 21 10 38 0 37 8 51
33 60 15 6 22 26 18 51 -1 4 5 18 13 30 8 14 11 28 6 36 -4 7 -6 19 -3 27 3 7
0 19 -6 27 -9 11 -7 15 9 19 13 3 20 14 20 29 0 33 11 45 47 52 29 7 63 42 63
65 0 8 -41 24 -68 26 -19 0 -30 24 -24 48 3 14 1 18 -6 13 -7 -4 -12 -14 -12
-23 0 -9 -29 -44 -65 -78 -36 -35 -65 -68 -65 -74 0 -6 -7 -11 -15 -11 -25 0
-17 -15 15 -27 64 -24 20 -74 -58 -66 -54 6 -59 9 -64 43 -7 55 -102 78 -96
23 2 -16 -3 -29 -14 -34 -10 -5 -26 -13 -35 -18 -10 -4 -19 -18 -21 -30 -3
-20 0 -21 38 -15 70 11 104 -40 57 -85 -27 -24 -50 -20 -64 12 -8 17 -19 22
-48 22 -51 0 -68 25 -37 58 12 13 22 32 22 43 0 31 24 58 45 50 10 -3 24 -1
32 5 11 10 11 14 -2 29 -11 12 -13 20 -6 25 6 3 11 17 11 31 0 15 6 24 15 24
9 0 15 -9 15 -25 0 -21 4 -24 33 -23 18 1 41 -4 52 -9 15 -8 23 -7 32 2 10 11
10 15 0 19 -9 3 -8 7 3 15 22 15 -6 61 -43 68 -20 4 -25 9 -18 16 17 17 13 35
-10 42 -14 5 -25 2 -30 -6 -7 -11 -12 -12 -29 -1 -31 19 -33 15 -10 -15 22
-29 11 -45 -15 -23 -9 7 -15 8 -15 2 0 -16 -51 -21 -84 -7 -17 7 -43 15 -58
19 -24 5 -28 3 -28 -14 0 -14 -11 -26 -35 -36 -49 -20 -69 -18 -105 12 -26 23
-35 25 -55 16 -28 -13 -35 -7 -35 32 0 28 -1 29 -14 10 -14 -19 -15 -18 -35 5
-12 13 -21 30 -21 37 0 21 -29 44 -47 37 -10 -4 -14 -2 -9 5 3 6 1 14 -5 18
-9 5 -10 -3 -5 -29 6 -34 5 -37 -26 -50 -18 -8 -39 -21 -47 -30 -19 -24 -40
-21 -67 8 -20 21 -21 25 -6 26 12 0 11 3 -5 9 -37 15 -28 32 14 25 20 -3 45
-3 55 1 19 6 19 6 1 18 -30 21 -61 25 -80 10 -24 -18 -33 -17 -33 1 0 35 -72
83 -82 54 -5 -15 -36 0 -41 19 -4 15 -5 15 -6 0 0 -10 -5 -18 -11 -18 -5 0
-14 8 -20 18 -9 15 -10 14 -8 -8z m133 -50 c3 -5 1 -10 -4 -10 -6 0 -11 5 -11
10 0 6 2 10 4 10 3 0 8 -4 11 -10z m1079 -276 c9 -3 16 -15 16 -26 0 -28 -34
-19 -38 10 -4 24 -2 25 22 16z m-614 -83 c0 -11 9 -26 20 -34 19 -13 19 -15 4
-21 -20 -8 -65 40 -57 61 8 20 33 15 33 -6z m107 -26 c3 -9 2 -19 -1 -23 -8
-8 -38 10 -44 26 -6 18 38 14 45 -3z m328 -165 c0 -22 -29 -18 -33 3 -3 14 1
18 15 15 10 -2 18 -10 18 -18z"/>
<path d="M4460 4286 c0 -9 5 -16 10 -16 6 0 10 4 10 9 0 6 -4 13 -10 16 -5 3
-10 -1 -10 -9z"/>
<path d="M302 4278 c5 -15 28 -23 28 -10 0 5 -7 13 -16 16 -10 4 -14 1 -12 -6z"/>
<path d="M1520 4283 c8 -3 22 -11 30 -17 13 -10 13 -9 1 7 -7 9 -21 17 -30 16
-13 0 -14 -1 -1 -6z"/>
<path d="M392 4260 c0 -14 2 -19 5 -12 2 6 2 18 0 25 -3 6 -5 1 -5 -13z"/>
<path d="M3336 4252 c-7 -12 4 -52 15 -52 13 0 18 15 12 38 -5 22 -18 29 -27
14z"/>
<path d="M4667 4253 c-6 -10 19 -34 27 -26 3 4 6 12 6 20 0 14 -26 18 -33 6z"/>
<path d="M699 4233 c-1 -10 0 -24 1 -32 1 -8 -9 -23 -22 -33 -20 -15 -21 -19
-8 -28 8 -5 26 -8 40 -5 14 3 51 -1 83 -10 32 -8 68 -15 80 -15 19 0 17 5 -21
43 -31 31 -45 39 -51 29 -6 -9 -19 -2 -49 28 -47 45 -52 47 -53 23z"/>
<path d="M805 4231 c-3 -6 -5 -11 -3 -12 27 -6 38 -5 35 4 -5 15 -24 20 -32 8z"/>
<path d="M3466 4218 c-3 -13 -1 -27 4 -32 14 -14 42 16 34 37 -9 24 -31 21
-38 -5z"/>
<path d="M506 4222 c-7 -12 7 -30 33 -40 21 -7 22 -10 8 -24 -12 -11 -13 -18
-4 -27 22 -22 33 -12 29 27 -6 52 -48 93 -66 64z"/>
<path d="M3930 4223 c1 -19 30 -45 45 -40 21 9 19 24 -4 37 -23 12 -41 13 -41
3z"/>
<path d="M4510 4221 c0 -11 21 -19 38 -14 21 8 13 23 -13 23 -14 0 -25 -4 -25
-9z"/>
<path d="M20 4192 c-34 -27 -17 -46 21 -26 25 12 28 18 18 30 -14 17 -12 18
-39 -4z"/>
<path d="M4607 4204 c-15 -15 -6 -51 21 -84 l29 -34 18 28 c17 26 18 29 2 38
-9 5 -17 16 -17 23 0 8 -9 15 -19 15 -11 0 -21 5 -23 11 -2 5 -7 7 -11 3z"/>
<path d="M1060 4146 c0 -8 4 -17 9 -20 5 -4 7 3 4 14 -6 23 -13 26 -13 6z"/>
<path d="M3790 4151 c0 -5 5 -13 10 -16 6 -3 10 -2 10 4 0 5 -4 13 -10 16 -5
3 -10 2 -10 -4z"/>
<path d="M1210 4139 c0 -5 5 -7 10 -4 6 3 10 8 10 11 0 2 -4 4 -10 4 -5 0 -10
-5 -10 -11z"/>
<path d="M1605 4140 c3 -5 8 -10 11 -10 2 0 4 5 4 10 0 6 -5 10 -11 10 -5 0
-7 -4 -4 -10z"/>
<path d="M3990 4130 c-22 -13 -22 -150 -1 -166 8 -7 21 -10 27 -7 7 2 17 -5
23 -16 9 -17 7 -22 -16 -33 -23 -12 -27 -19 -29 -72 -2 -35 -10 -66 -19 -76
-19 -21 -20 -60 -1 -60 32 0 66 20 66 39 0 11 7 24 15 28 10 6 15 25 16 58 0
64 -8 155 -15 163 -3 3 1 13 10 23 9 10 14 27 11 39 -3 13 0 20 10 20 8 0 -4
16 -27 35 -46 38 -48 39 -70 25z"/>
<path d="M1470 4110 c0 -5 7 -10 15 -10 8 0 15 5 15 10 0 6 -7 10 -15 10 -8 0
-15 -4 -15 -10z"/>
<path d="M4203 4106 c-7 -8 -18 -16 -25 -19 -7 -2 -11 -7 -8 -10 3 -3 19 5 35
18 17 13 26 24 20 24 -5 0 -15 -6 -22 -13z"/>
<path d="M4925 4088 c-3 -7 -9 -40 -13 -73 -5 -43 -11 -60 -22 -60 -12 0 -14
11 -13 47 2 38 -1 49 -16 57 -16 9 -20 6 -26 -17 -22 -78 -6 -141 28 -114 17
13 84 24 106 17 11 -3 22 -17 25 -30 4 -14 14 -25 22 -25 12 0 14 5 9 18 -4 9
-7 25 -7 35 0 10 -7 17 -18 17 -25 0 -33 15 -36 64 -1 23 -2 49 -3 59 -1 20
-29 23 -36 5z"/>
<path d="M4118 4083 c6 -2 18 -2 25 0 6 3 1 5 -13 5 -14 0 -19 -2 -12 -5z"/>
<path d="M4320 4076 c0 -7 9 -16 20 -19 23 -6 26 3 8 21 -16 16 -28 15 -28 -2z"/>
<path d="M4237 4050 c-5 -21 0 -25 21 -11 10 6 10 10 -1 20 -12 9 -16 7 -20
-9z"/>
<path d="M3654 4043 c-10 -8 -28 -12 -40 -10 -11 2 -25 -2 -32 -9 -17 -19 -15
-22 12 -17 40 8 89 -55 65 -83 -8 -10 -8 -14 -1 -14 6 0 9 -7 5 -16 -4 -12 0
-15 17 -12 17 2 26 14 38 51 11 35 19 46 30 42 13 -5 13 -3 1 12 -12 15 -12
16 4 10 9 -3 17 -4 17 -1 0 3 -13 10 -30 15 -16 6 -28 14 -26 18 2 3 -6 11
-18 17 -18 8 -28 7 -42 -3z"/>
<path d="M4660 4050 c8 -5 11 -12 8 -16 -4 -3 -1 -13 7 -20 17 -17 28 -18 22
-1 -2 6 0 20 5 30 7 14 4 17 -24 17 -24 0 -29 -3 -18 -10z"/>
<path d="M1431 4032 c-17 -32 1 -44 38 -26 26 13 30 19 20 30 -16 20 -46 17
-58 -4z"/>
<path d="M290 4025 c0 -8 5 -15 10 -15 6 0 10 7 10 15 0 8 -4 15 -10 15 -5 0
-10 -7 -10 -15z"/>
<path d="M3235 4030 c3 -5 8 -10 11 -10 2 0 4 5 4 10 0 6 -5 10 -11 10 -5 0
-7 -4 -4 -10z"/>
<path d="M4605 4031 c-3 -6 2 -14 12 -18 10 -3 22 -12 26 -20 9 -15 37 -18 37
-3 0 6 -8 13 -17 17 -10 3 -25 12 -35 20 -11 10 -18 11 -23 4z"/>
<path d="M4149 3993 c-30 -34 -29 -83 1 -83 10 0 22 9 25 20 3 11 15 24 25 30
21 11 21 37 -1 51 -20 13 -23 12 -50 -18z"/>
<path d="M0 3990 c0 -5 4 -10 9 -10 6 0 13 5 16 10 3 6 -1 10 -9 10 -9 0 -16
-4 -16 -10z"/>
<path d="M3425 3940 c-8 -13 4 -32 16 -25 12 8 12 35 0 35 -6 0 -13 -4 -16
-10z"/>
<path d="M0 3930 c0 -5 5 -10 10 -10 6 0 10 5 10 10 0 6 -4 10 -10 10 -5 0
-10 -4 -10 -10z"/>
<path d="M2047 3886 c-3 -8 -2 -18 3 -21 6 -4 10 -15 10 -26 0 -12 4 -17 11
-13 6 3 8 17 4 33 -8 34 -21 46 -28 27z"/>
<path d="M3743 3885 c-21 -24 -15 -40 7 -20 20 18 26 35 13 35 -5 -1 -14 -7
-20 -15z"/>
<path d="M4950 3889 c0 -5 5 -7 10 -4 6 3 10 8 10 11 0 2 -4 4 -10 4 -5 0 -10
-5 -10 -11z"/>
<path d="M3203 3873 c-24 -16 -31 -45 -10 -40 9 1 12 -15 10 -61 -1 -35 0 -62
3 -59 8 7 34 117 34 142 0 31 -10 36 -37 18z"/>
<path d="M4803 3866 c-6 -8 -9 -17 -6 -20 4 -3 -1 -6 -10 -6 -9 0 -17 -5 -17
-11 0 -6 13 -8 35 -5 33 6 35 4 35 -21 0 -21 3 -24 12 -15 14 14 32 16 24 3
-9 -14 43 0 56 16 17 20 -7 35 -48 29 -26 -4 -34 0 -43 20 -12 27 -21 29 -38
10z"/>
<path d="M4709 3860 c-9 -5 -22 -30 -29 -55 -7 -25 -19 -45 -26 -45 -8 0 -14
-5 -14 -11 0 -6 11 -8 29 -4 21 4 30 2 35 -11 5 -14 10 -13 33 10 47 47 73 27
55 -44 -5 -22 -6 -40 -1 -42 5 -2 11 -23 13 -48 4 -34 0 -51 -14 -70 -18 -23
-19 -24 -38 -7 -26 23 -37 22 -60 -10 -15 -21 -23 -25 -33 -16 -8 6 -23 13
-34 15 -18 5 -18 6 5 16 24 10 24 11 3 11 -18 1 -23 7 -23 26 0 22 -2 24 -19
13 -11 -6 -22 -24 -25 -40 -4 -22 -11 -28 -31 -28 -21 0 -25 5 -25 30 0 17 -5
30 -11 30 -5 0 -8 -4 -5 -8 3 -5 -8 -6 -25 -4 -32 5 -40 -16 -14 -38 8 -7 15
-23 15 -37 l0 -24 31 22 31 22 24 -26 c20 -21 30 -25 57 -21 22 4 28 3 18 -4
-11 -8 -10 -13 7 -30 19 -19 20 -24 8 -59 -11 -32 -11 -41 2 -61 12 -18 12
-28 3 -48 -9 -20 -8 -30 5 -49 9 -14 20 -25 23 -25 4 0 6 -13 3 -28 -3 -21 -9
-28 -25 -28 -18 1 -22 -5 -23 -29 0 -16 -4 -40 -8 -52 -4 -12 -3 -24 2 -27 12
-7 -2 -106 -23 -160 -14 -37 -24 -47 -54 -57 l-36 -12 33 -9 c17 -5 32 -14 32
-21 0 -7 5 -4 11 6 5 9 19 17 29 17 11 0 20 5 20 10 0 6 16 10 36 10 l36 0 -7
94 c-6 78 -4 98 10 119 10 16 14 34 10 50 -5 17 -1 34 9 49 13 18 16 49 16
145 l0 122 29 20 c38 28 58 26 63 -4 3 -13 1 -22 -3 -19 -18 11 -31 -8 -16
-24 18 -23 47 -100 42 -115 -2 -7 -6 -43 -9 -81 -3 -42 -11 -75 -21 -86 -10
-11 -14 -26 -10 -42 4 -14 7 -69 8 -124 l2 -99 27 3 c17 2 30 -3 37 -15 6 -10
11 -14 11 -9 0 4 10 2 23 -7 22 -14 23 -14 19 18 -3 27 -7 32 -24 27 -11 -3
-24 1 -29 9 -10 16 -2 63 15 92 9 16 7 22 -11 34 -17 11 -23 25 -23 50 0 33 1
34 22 19 34 -24 46 -19 54 19 5 29 9 33 20 24 8 -6 15 -8 15 -3 1 5 4 -4 8
-21 4 -16 2 -38 -3 -47 -8 -13 -6 -27 8 -53 10 -19 22 -32 27 -30 4 3 8 82 9
175 1 169 1 170 -24 195 -14 14 -31 22 -39 19 -8 -3 -18 0 -22 6 -11 19 16 40
51 40 27 0 34 4 34 20 0 11 -5 20 -11 20 -19 0 -56 35 -51 49 3 8 0 11 -6 8
-5 -4 -15 0 -22 8 -10 12 -10 21 -2 38 12 22 12 187 1 187 -3 0 -14 -9 -24
-20 -23 -26 -80 -27 -89 -3 -7 16 16 43 36 43 17 0 7 40 -13 51 -17 9 -20 8
-14 -3 5 -7 -5 -1 -22 15 -35 32 -49 34 -63 7 -14 -25 -22 -25 -38 1 -11 17
-11 27 -1 50 14 34 10 41 -12 29z m218 -546 c-3 -3 -12 -4 -19 -1 -8 3 -5 6 6
6 11 1 17 -2 13 -5z m-7 -149 c0 -9 -6 -12 -15 -9 -8 4 -12 10 -9 15 8 14 24
10 24 -6z"/>
<path d="M1344 3852 c9 -15 -20 -153 -34 -162 -12 -8 -11 -10 6 -10 11 0 24 3
28 8 4 4 13 7 19 7 6 0 16 12 21 27 7 20 5 30 -7 43 -22 22 -21 35 1 35 30 0
34 12 10 37 -20 21 -56 33 -44 15z"/>
<path d="M3691 3837 c-12 -15 -5 -27 16 -27 7 0 13 9 13 20 0 23 -13 26 -29 7z"/>
<path d="M303 3829 c-35 -10 -43 -26 -18 -35 8 -4 15 -16 15 -29 0 -26 20 -38
41 -24 25 16 29 10 23 -30 -7 -43 8 -81 33 -81 19 0 10 -13 -11 -16 -30 -4
-56 -16 -56 -25 0 -12 -33 -12 -46 1 -7 7 -20 7 -33 2 -20 -7 -21 -9 -7 -21
21 -17 20 -56 -1 -92 -20 -33 -38 -36 -66 -11 -11 9 -18 13 -16 7 19 -44 35
-64 53 -69 11 -4 30 -13 40 -21 16 -12 17 -17 6 -30 -7 -8 -23 -15 -35 -15
-19 0 -22 -5 -21 -37 1 -27 6 -39 19 -41 9 -2 17 1 17 7 0 6 8 11 18 11 11 0
13 3 5 8 -8 5 -6 14 8 31 17 20 20 21 25 6 5 -13 15 -15 38 -11 38 7 65 -12
64 -45 -2 -31 -16 -49 -37 -49 -27 0 -50 -61 -46 -119 3 -38 0 -51 -10 -51 -7
0 -15 -7 -19 -15 -3 -8 -12 -15 -21 -15 -27 0 -16 -19 23 -39 22 -11 46 -31
55 -45 17 -25 23 -86 10 -86 -5 0 -25 16 -46 35 -41 37 -65 39 -46 3 10 -18 8
-25 -10 -39 -12 -10 -25 -34 -28 -54 -3 -19 -10 -38 -14 -41 -17 -10 -8 -35
16 -44 39 -15 29 -30 -19 -30 -55 0 -96 15 -96 34 0 21 19 30 35 16 8 -6 19
-9 25 -5 8 5 4 12 -10 22 -13 9 -19 21 -15 33 3 10 -1 25 -10 34 -9 9 -13 21
-10 26 8 14 -13 40 -32 40 -11 0 -13 -7 -8 -31 5 -22 3 -30 -7 -28 -7 1 -28
-2 -45 -6 -33 -7 -33 -8 -33 -65 0 -43 4 -59 16 -64 8 -3 13 -10 10 -14 -3 -5
1 -20 9 -35 7 -14 11 -28 8 -31 -3 -3 -6 -31 -7 -63 -2 -47 -5 -58 -19 -57
-14 1 -16 -11 -16 -90 1 -67 3 -85 10 -67 8 20 14 23 44 18 19 -3 37 -1 40 4
9 14 25 11 25 -5 0 -25 44 -45 89 -39 22 3 41 8 41 11 0 3 -10 16 -22 29 -23
25 -18 44 7 23 17 -14 19 -7 5 19 -6 13 -5 24 5 37 25 33 17 60 -35 117 -27
30 -50 60 -50 66 0 16 31 13 67 -6 31 -18 103 -102 103 -122 0 -17 43 -41 55
-31 6 5 20 8 30 8 11 -1 37 2 57 6 35 6 38 10 44 46 4 23 12 40 20 40 7 0 14
14 16 32 2 25 9 34 28 39 20 6 21 7 5 8 -28 1 -35 78 -8 88 9 4 19 1 21 -5 2
-7 13 -12 24 -12 18 0 19 -4 13 -37 -4 -21 -8 -49 -9 -63 -1 -20 -6 -24 -23
-23 -13 2 -23 -2 -23 -7 0 -6 5 -10 10 -10 13 0 13 -40 0 -60 -7 -12 -12 -12
-29 4 -21 19 -21 19 -23 0 0 -10 0 -32 1 -47 2 -23 -3 -30 -28 -40 -35 -13
-44 -43 -11 -34 11 3 20 1 20 -4 0 -4 -15 -12 -32 -17 -31 -8 -30 -9 17 -10
28 0 63 -7 78 -15 16 -8 38 -12 49 -9 20 5 20 6 3 18 -10 7 -38 16 -62 20 -26
4 -42 11 -40 18 2 7 37 11 105 10 90 -1 101 0 105 17 3 12 14 19 28 19 21 0
21 1 6 18 -23 26 -13 112 15 120 21 5 21 7 8 31 -7 15 -4 20 16 30 28 12 44 7
44 -15 0 -8 9 -14 20 -14 24 0 27 -15 4 -24 -10 -4 -14 -16 -12 -38 2 -26 -2
-35 -19 -43 -13 -6 -23 -19 -23 -30 0 -12 -5 -26 -12 -33 -9 -9 -7 -12 9 -12
36 0 46 -23 35 -77 -6 -26 -14 -56 -17 -66 -4 -9 -3 -17 3 -17 13 0 74 51 68
57 -2 3 4 23 15 46 10 23 19 52 19 65 0 29 24 38 53 19 16 -10 28 -12 40 -5
21 11 22 28 2 28 -8 0 -17 11 -20 25 -3 14 -7 36 -10 50 -3 14 -12 25 -21 25
-21 0 -28 24 -14 50 18 34 52 22 70 -25 14 -37 17 -40 36 -30 20 10 21 13 9
48 -11 32 -11 40 2 52 13 13 12 16 -9 24 -13 5 -30 16 -37 25 -15 18 -38 21
-43 5 -5 -14 -39 -18 -61 -7 -14 7 -17 16 -13 34 4 14 2 24 -4 24 -5 0 -10
-10 -10 -21 0 -27 -38 -89 -54 -89 -7 0 -21 9 -31 21 -13 13 -30 19 -50 18
-79 -5 -92 -1 -99 32 -4 19 -1 38 6 46 7 9 17 25 23 37 7 13 20 21 35 21 21 0
26 -5 28 -32 4 -36 19 -44 29 -15 3 9 12 24 20 33 22 26 -7 43 -60 35 -37 -6
-43 -4 -44 12 -1 11 16 37 38 58 21 21 39 45 39 54 0 9 3 20 7 24 4 4 8 21 9
38 2 40 26 62 70 65 29 2 37 -2 41 -17 6 -23 12 -24 47 -10 18 6 34 6 51 -2
27 -12 32 -27 13 -46 -9 -9 -9 -15 0 -24 22 -22 -4 -44 -54 -47 -27 -1 -54 -7
-61 -12 -6 -6 -20 -8 -30 -5 -10 3 -24 2 -30 -2 -17 -11 15 -79 40 -85 9 -3
17 -15 17 -27 0 -18 -4 -21 -24 -16 -20 5 -26 1 -35 -26 -14 -40 -13 -47 3
-25 8 10 24 16 41 15 20 -2 33 5 48 27 32 44 49 97 34 107 -9 6 -9 8 1 8 6 0
15 0 20 0 4 0 8 -9 8 -20 1 -11 -2 -20 -6 -20 -10 0 0 -49 11 -56 5 -3 9 1 9
9 0 8 7 18 15 21 14 5 14 8 0 30 -15 22 -15 27 0 56 20 39 41 47 65 25 10 -9
24 -14 29 -10 7 4 11 -3 11 -17 0 -38 15 -52 45 -44 l27 7 -48 44 c-30 28 -58
45 -73 45 -23 0 -24 1 -6 20 10 11 22 20 26 20 4 0 37 -20 73 -44 55 -37 66
-41 66 -26 0 11 8 24 18 29 9 6 12 11 6 11 -11 0 -34 42 -34 64 0 7 18 22 41
33 23 12 36 24 30 27 -6 4 -11 18 -11 31 0 17 7 25 23 28 16 2 10 7 -25 16
-27 8 -48 18 -48 23 0 6 6 8 14 5 24 -9 26 20 3 40 -27 24 -63 17 -63 -12 0
-11 -3 -39 -8 -62 -6 -33 -12 -43 -27 -43 -10 0 -19 4 -19 9 0 5 -11 12 -24
15 -22 5 -23 10 -21 68 1 35 3 69 3 76 3 18 25 15 45 -8 16 -20 54 -29 43 -11
-4 5 -2 21 4 36 8 20 15 25 29 20 27 -8 36 12 11 25 -26 14 -26 40 1 47 16 4
17 8 7 14 -23 15 -38 10 -38 -12 0 -17 -4 -20 -23 -15 -16 4 -26 -1 -35 -15
-9 -13 -19 -18 -32 -14 -10 3 -21 1 -25 -5 -13 -21 -61 -10 -91 21 -26 27 -34
30 -68 24 -35 -5 -38 -4 -33 15 3 11 1 20 -4 20 -5 0 -9 -4 -9 -10 0 -16 -23
-11 -47 9 -13 11 -23 29 -23 41 0 18 -3 20 -14 11 -16 -14 -56 1 -56 20 0 6
-5 7 -11 3 -6 -3 -22 -1 -35 6 -20 11 -21 15 -9 24 18 14 7 31 -25 40 -14 3
-19 3 -12 0 6 -3 12 -14 12 -24 0 -10 -6 -20 -12 -23 -7 -2 2 -11 20 -21 22
-11 32 -24 32 -39 -1 -21 -2 -21 -24 6 -13 16 -32 28 -42 27 -10 -1 -26 -2
-34 -1 -17 1 -106 81 -90 81 23 0 7 29 -30 54 -45 30 -60 32 -60 11 0 -8 4
-15 8 -15 10 0 52 -35 52 -43 0 -2 -7 -8 -16 -11 -8 -3 -12 -2 -9 4 6 10 -4
20 -55 53 -19 13 -35 32 -36 42 -3 49 -5 54 -34 60 -34 8 -39 29 -10 45 22 12
27 31 8 29 -7 0 -28 -5 -45 -10z m5 -322 c2 -12 -3 -17 -17 -17 -23 0 -24 1
-15 25 8 19 28 15 32 -8z m55 -71 c14 -21 13 -66 -1 -66 -9 0 -82 73 -82 82 0
4 15 8 34 8 24 0 38 -6 49 -24z m27 4 c0 -5 -5 -10 -11 -10 -5 0 -7 5 -4 10 3
6 8 10 11 10 2 0 4 -4 4 -10z m404 -9 c8 -12 -17 -61 -31 -61 -17 0 -29 23
-15 28 7 2 12 12 12 23 0 19 24 27 34 10z m106 -37 c0 -9 -5 -14 -12 -12 -18
6 -21 28 -4 28 9 0 16 -7 16 -16z m67 -29 c0 -8 -4 -15 -8 -15 -11 0 -20 16
-12 24 11 11 20 7 20 -9z m69 -18 c3 -24 -30 -18 -34 7 -3 12 1 17 14 14 9 -1
18 -11 20 -21z m-530 -12 c28 -26 26 -32 -4 -16 -9 5 -25 12 -34 15 -10 3 -18
10 -18 16 0 18 28 11 56 -15z m264 11 c9 -12 8 -35 -3 -108 -9 -51 -20 -106
-26 -121 -6 -16 -11 -46 -11 -67 0 -21 -7 -45 -15 -54 -8 -8 -15 -21 -15 -29
0 -20 -25 -28 -39 -14 -8 8 -11 7 -11 -6 0 -9 9 -26 20 -37 24 -24 25 -34 4
-55 -11 -11 -14 -26 -10 -48 6 -38 -24 -83 -50 -73 -12 5 -14 9 -5 20 9 10 8
16 -4 26 -17 14 -20 47 -6 69 10 15 -16 67 -27 56 -3 -3 -9 -40 -12 -83 -7
-105 -25 -98 -27 11 -1 77 1 88 18 97 10 6 19 8 19 4 0 -4 9 5 20 19 11 14 20
31 20 39 0 8 6 20 13 27 10 10 7 16 -11 29 -15 12 -21 24 -16 35 7 18 24 23
24 7 0 -12 40 -13 56 -2 13 8 23 52 31 130 3 28 9 52 14 52 5 0 6 13 3 30 -4
18 -1 36 6 45 16 19 24 19 40 1z m-330 -44 c0 -5 25 -16 55 -26 53 -16 66 -28
45 -41 -16 -10 -84 13 -103 35 -19 23 -22 40 -7 40 6 0 10 -4 10 -8z m586 -13
c3 -5 9 -7 14 -4 5 3 17 -11 25 -32 15 -36 15 -39 -4 -52 -12 -7 -21 -24 -21
-37 0 -43 -22 -40 -52 8 -10 14 -27 29 -38 33 -11 3 -20 14 -20 22 0 9 -7 24
-16 34 -9 10 -14 22 -11 26 8 12 115 14 123 2z m-448 -317 c2 -7 -3 -12 -12
-12 -9 0 -16 7 -16 16 0 17 22 14 28 -4z m212 -6 c0 -2 -7 -9 -15 -16 -12 -10
-15 -10 -15 4 0 9 7 16 15 16 8 0 15 -2 15 -4z m-726 -174 c2 -4 1 -14 -4 -22
-7 -11 -12 -12 -21 -3 -6 6 -8 16 -5 22 8 13 23 14 30 3z m1 -82 c3 -5 2 -17
-3 -26 -8 -14 -10 -14 -21 0 -13 15 -8 36 9 36 5 0 12 -4 15 -10z m870 -79 c3
-5 1 -12 -5 -16 -5 -3 -10 1 -10 9 0 18 6 21 15 7z m-824 -124 c-16 -16 -26
20 -10 40 13 15 14 14 17 -7 2 -12 -1 -27 -7 -33z m-76 -117 c3 -5 -1 -10 -9
-10 -9 0 -16 5 -16 10 0 6 4 10 9 10 6 0 13 -4 16 -10z m151 -45 c15 -11 16
-14 3 -15 -8 0 -24 7 -35 15 -15 11 -16 14 -3 15 8 0 24 -7 35 -15z"/>
<path d="M975 3259 c-4 -6 -3 -15 3 -21 6 -6 11 -4 15 6 7 18 -9 31 -18 15z"/>
<path d="M3560 3825 c0 -3 15 -20 34 -38 19 -17 40 -45 46 -61 15 -40 32 -21
34 38 1 45 1 46 -34 52 -19 3 -45 7 -57 10 -13 2 -23 2 -23 -1z"/>
<path d="M466 3796 c21 -15 30 -14 19 3 -3 6 -14 11 -23 11 -13 0 -13 -2 4
-14z"/>
<path d="M1675 3800 c3 -5 8 -10 11 -10 2 0 4 5 4 10 0 6 -5 10 -11 10 -5 0
-7 -4 -4 -10z"/>
<path d="M2057 3791 c-3 -12 -1 -23 3 -26 4 -3 6 -14 3 -25 -3 -11 0 -20 6
-20 13 0 15 59 2 78 -6 10 -10 9 -14 -7z"/>
<path d="M91 3778 c-6 -16 -4 -26 6 -34 21 -15 12 -46 -17 -61 -14 -7 -18 -13
-10 -13 8 0 25 -3 36 -6 18 -5 22 -1 26 27 6 42 -1 69 -17 69 -8 0 -11 8 -8
20 7 27 -6 25 -16 -2z"/>
<path d="M1730 3780 c0 -16 5 -21 23 -18 12 2 22 10 22 18 0 8 -10 16 -22 18
-18 3 -23 -2 -23 -18z"/>
<path d="M3178 3794 c-5 -4 -8 -26 -7 -48 l1 -41 9 33 c11 37 9 68 -3 56z"/>
<path d="M4242 3760 c0 -14 2 -19 5 -12 2 6 2 18 0 25 -3 6 -5 1 -5 -13z"/>
<path d="M1455 3760 c3 -5 8 -10 11 -10 2 0 4 5 4 10 0 6 -5 10 -11 10 -5 0
-7 -4 -4 -10z"/>
<path d="M3400 3750 c0 -5 4 -10 9 -10 6 0 13 5 16 10 3 6 -1 10 -9 10 -9 0
-16 -4 -16 -10z"/>
<path d="M254 3739 c-3 -6 -2 -15 2 -19 12 -12 38 5 30 19 -9 14 -23 14 -32 0z"/>
<path d="M460 3740 c8 -5 20 -10 25 -10 6 0 3 5 -5 10 -8 5 -19 10 -25 10 -5
0 -3 -5 5 -10z"/>
<path d="M1624 3729 c-3 -6 -1 -16 4 -21 13 -13 45 8 36 23 -7 12 -31 11 -40
-2z"/>
<path d="M4653 3704 c-6 -13 -8 -25 -6 -28 5 -5 54 13 63 23 3 3 3 5 1 3 -2
-1 -14 4 -26 12 -19 12 -22 11 -32 -10z"/>
<path d="M590 3702 c0 -5 7 -15 15 -22 8 -7 15 -8 15 -2 0 5 -7 15 -15 22 -8
7 -15 8 -15 2z"/>
<path d="M3175 3690 c-3 -5 -2 -10 4 -10 5 0 13 5 16 10 3 6 2 10 -4 10 -5 0
-13 -4 -16 -10z"/>
<path d="M4734 3688 c-7 -11 22 -21 36 -13 5 3 10 10 10 15 0 11 -40 9 -46 -2z"/>
<path d="M3377 3682 c-27 -3 -66 -46 -53 -59 3 -3 6 -1 6 5 0 19 39 35 55 22
10 -9 15 -6 20 10 8 26 7 26 -28 22z"/>
<path d="M3625 3660 c-3 -4 2 -10 10 -14 8 -3 15 -17 15 -31 0 -27 6 -30 30
-15 10 6 11 10 3 10 -7 0 -12 3 -12 8 4 24 -3 40 -21 45 -11 3 -22 2 -25 -3z"/>
<path d="M38 3634 c-4 -4 -3 -13 3 -20 13 -16 -5 -54 -26 -54 -9 0 -15 -9 -15
-21 0 -17 5 -20 25 -17 17 4 25 1 25 -8 0 -8 -11 -14 -25 -14 -22 0 -25 -4
-24 -37 0 -21 3 -33 5 -27 3 7 14 9 26 6 14 -3 19 -1 14 6 -5 8 -1 10 10 5 12
-4 15 -3 10 5 -4 7 -2 12 3 12 15 0 13 -31 -2 -51 -7 -9 -22 -19 -35 -23 -22
-7 -22 -8 -5 -22 22 -16 44 -18 40 -3 -1 6 3 13 8 15 6 3 10 -23 10 -66 0 -38
-1 -70 -1 -70 -1 0 -15 7 -30 15 -38 20 -54 19 -54 -3 0 -22 36 -45 59 -37 14
4 19 0 19 -18 0 -20 -5 -23 -24 -19 -14 2 -24 0 -24 -7 0 -6 -7 -11 -15 -11
-11 0 -15 -11 -15 -40 0 -22 5 -40 10 -40 7 0 7 -6 0 -19 -5 -11 -10 -37 -10
-59 l0 -39 45 0 c25 0 45 4 45 8 0 4 9 11 20 14 15 5 19 12 14 27 -4 13 1 26
15 39 l21 20 0 -35 0 -35 29 17 c21 12 28 23 27 40 -4 35 -22 49 -46 34 -11
-6 -24 -12 -30 -12 -19 0 -10 39 16 66 19 21 33 27 59 26 18 -2 36 2 39 7 7
10 -58 35 -86 33 -11 0 -15 5 -11 14 3 8 -1 14 -8 14 -10 1 -9 5 4 14 21 16
22 26 1 26 -12 0 -15 7 -12 30 3 18 -1 35 -9 41 -20 18 -17 70 6 76 18 5 18 6
-1 44 -11 24 -16 49 -13 62 4 15 3 18 -3 9 -7 -11 -15 -5 -31 22 -13 20 -26
36 -31 36 -5 0 -10 7 -12 16 -2 9 -6 12 -10 8z m44 -86 c-15 -15 -24 -6 -16
16 5 12 10 14 17 7 8 -8 8 -14 -1 -23z m4 -482 c-3 -14 -10 -26 -15 -26 -16 0
-21 30 -9 50 16 26 32 9 24 -24z"/>
<path d="M110 3629 c-13 -8 -13 -10 0 -19 27 -18 39 -9 22 17 -5 8 -12 9 -22
2z"/>
<path d="M0 3610 c0 -19 3 -21 12 -12 9 9 9 15 0 24 -9 9 -12 7 -12 -12z"/>
<path d="M576 3612 c-3 -6 1 -13 10 -16 23 -9 28 -2 10 13 -8 7 -17 8 -20 3z"/>
<path d="M803 3607 c0 -7 -3 -24 -6 -39 -9 -34 5 -43 28 -18 16 18 17 23 5 45
-14 27 -27 33 -27 12z"/>
<path d="M3573 3585 c-8 -22 6 -33 17 -15 13 20 12 30 0 30 -6 0 -13 -7 -17
-15z"/>
<path d="M3412 3578 c6 -18 28 -21 28 -4 0 9 -7 16 -16 16 -9 0 -14 -5 -12
-12z"/>
<path d="M4347 3566 c-3 -8 -3 -17 0 -20 7 -7 33 13 33 25 0 15 -27 10 -33 -5z"/>
<path d="M4628 3573 c7 -3 16 -2 19 1 4 3 -2 6 -13 5 -11 0 -14 -3 -6 -6z"/>
<path d="M2180 3536 c0 -8 5 -18 10 -21 6 -3 10 1 10 9 0 8 -4 18 -10 21 -5 3
-10 -1 -10 -9z"/>
<path d="M4195 3530 c-10 -11 -15 -20 -11 -20 14 0 46 21 46 30 0 16 -16 11
-35 -10z"/>
<path d="M890 3531 c-25 -8 -25 -8 7 -15 37 -9 63 1 42 15 -16 10 -15 10 -49
0z"/>
<path d="M4000 3456 c0 -14 5 -26 10 -26 6 0 10 7 10 15 0 8 0 18 1 22 0 4 -4
9 -10 11 -6 2 -11 -8 -11 -22z"/>
<path d="M4060 3471 c0 -17 18 -21 24 -6 3 9 0 15 -9 15 -8 0 -15 -4 -15 -9z"/>
<path d="M1107 3443 c-4 -3 -7 -11 -7 -17 0 -6 5 -5 12 2 6 6 9 14 7 17 -3 3
-9 2 -12 -2z"/>
<path d="M4471 3424 c0 -11 3 -14 6 -6 3 7 2 16 -1 19 -3 4 -6 -2 -5 -13z"/>
<path d="M1972 3388 c5 -15 28 -18 29 -3 0 6 -7 12 -17 13 -10 3 -15 -1 -12
-10z"/>
<path d="M2103 3372 c7 -16 13 -20 16 -11 2 8 8 17 13 20 6 4 -1 8 -15 11 -23
5 -24 3 -14 -20z"/>
<path d="M4057 3322 l-28 -27 -18 24 -18 24 -1 -29 c-5 -154 -12 -281 -16
-338 -6 -67 -6 -68 16 -62 13 3 34 6 47 6 21 0 23 3 17 32 -3 17 -16 41 -27
51 -22 21 -22 21 -3 174 l6 52 25 -16 c13 -9 26 -13 29 -10 7 6 9 136 2 142
-2 2 -16 -8 -31 -23z"/>
<path d="M4569 3283 c-19 -53 -19 -58 0 -35 11 12 24 22 30 22 6 0 11 9 11 20
0 30 -29 24 -41 -7z"/>
<path d="M3096 3263 c-4 -11 -16 -30 -27 -42 -15 -16 -18 -26 -11 -33 19 -19
39 0 46 42 7 45 2 65 -8 33z"/>
<path d="M1965 3250 c-3 -5 1 -10 10 -10 9 0 13 5 10 10 -3 6 -8 10 -10 10 -2
0 -7 -4 -10 -10z"/>
<path d="M4465 3110 c-19 -36 -19 -41 0 -34 8 4 15 14 15 23 0 9 5 22 12 29 9
9 9 12 0 12 -6 0 -18 -13 -27 -30z"/>
<path d="M1605 3072 c0 -22 -4 -25 -30 -25 -16 0 -38 3 -47 7 -40 14 -48 15
-48 7 0 -5 6 -11 13 -14 6 -2 -3 -6 -21 -9 -25 -4 -35 0 -43 14 -13 24 -29 23
-29 -3 0 -13 4 -18 13 -13 6 4 2 -4 -9 -17 -36 -40 -53 -116 -29 -125 18 -7
25 -2 29 18 11 50 32 71 58 57 19 -10 32 5 26 31 -6 27 36 23 58 -5 l22 -28
32 23 c51 36 63 92 23 102 -14 4 -18 -1 -18 -20z"/>
<path d="M1465 3080 c-3 -6 1 -7 9 -4 18 7 21 14 7 14 -6 0 -13 -4 -16 -10z"/>
<path d="M1747 3064 c-11 -11 -8 -54 3 -54 6 0 13 6 16 14 7 17 -9 50 -19 40z"/>
<path d="M4408 3000 c-20 -30 -35 -56 -33 -58 8 -8 55 24 55 38 0 9 5 21 11
27 6 6 9 19 7 29 -2 13 -13 4 -40 -36z"/>
<path d="M870 2995 c0 -9 5 -15 11 -13 6 2 11 8 11 13 0 5 -5 11 -11 13 -6 2
-11 -4 -11 -13z"/>
<path d="M4470 2981 c-16 -18 -24 -37 -22 -54 3 -21 -2 -29 -22 -37 -30 -11
-36 -50 -11 -70 8 -7 15 -25 15 -41 0 -18 7 -32 19 -39 29 -15 46 -4 48 31 1
17 8 38 14 45 9 12 7 20 -11 39 -21 22 -22 29 -13 62 9 35 16 94 10 93 -1 -1
-13 -13 -27 -29z"/>
<path d="M4549 2940 c-14 -45 -7 -60 19 -44 15 10 18 24 13 72 -2 26 -21 10
-32 -28z"/>
<path d="M0 2940 c0 -13 7 -20 20 -20 11 0 20 1 20 3 0 1 -9 10 -20 20 -19 16
-20 16 -20 -3z"/>
<path d="M1242 2911 c2 -7 7 -12 11 -12 12 1 9 15 -3 20 -7 2 -11 -2 -8 -8z"/>
<path d="M1088 2831 c2 -16 -1 -31 -6 -35 -21 -13 10 -64 41 -70 36 -7 44 -2
28 18 -6 8 -11 18 -10 22 3 21 -2 35 -11 29 -5 -3 -10 0 -10 9 0 8 5 16 12 18
20 7 0 38 -25 38 -20 0 -23 -4 -19 -29z m37 -61 c3 -5 1 -10 -4 -10 -6 0 -11
5 -11 10 0 6 2 10 4 10 3 0 8 -4 11 -10z"/>
<path d="M4290 2815 c0 -8 2 -15 4 -15 2 0 6 7 10 15 3 8 1 15 -4 15 -6 0 -10
-7 -10 -15z"/>
<path d="M1331 2784 c0 -11 3 -14 6 -6 3 7 2 16 -1 19 -3 4 -6 -2 -5 -13z"/>
<path d="M4080 2775 c0 -15 4 -24 10 -20 6 3 10 12 10 20 0 8 -4 17 -10 20 -6
4 -10 -5 -10 -20z"/>
<path d="M4904 2772 c-14 -10 -25 -42 -15 -42 20 0 41 13 41 25 0 18 -13 26
-26 17z"/>
<path d="M4274 2735 c4 -16 7 -36 8 -42 1 -7 5 -13 9 -13 4 0 9 6 12 13 3 8
13 4 31 -12 14 -14 26 -28 26 -33 0 -4 -17 -15 -37 -23 -31 -13 -45 -14 -84
-4 -56 15 -79 8 -72 -20 3 -12 11 -21 19 -21 18 0 26 -17 19 -39 -13 -41 -69
-32 -58 10 5 18 3 18 -23 9 -30 -12 -29 -12 -61 37 -12 17 -13 17 -27 -2 -9
-11 -21 -27 -28 -35 -15 -17 -12 -38 9 -62 18 -20 9 -85 -10 -70 -8 6 -21 6
-37 0 l-25 -10 25 -12 c14 -6 34 -19 45 -28 11 -9 29 -23 39 -31 24 -18 12
-39 -18 -31 -19 4 -31 -3 -61 -40 -21 -25 -44 -46 -51 -46 -8 0 -14 -7 -14
-15 0 -20 34 -19 54 1 11 11 36 15 83 16 38 0 62 2 56 5 -7 3 -13 10 -13 16 0
14 72 57 94 57 8 0 26 14 39 30 32 37 60 38 120 5 25 -14 63 -27 84 -28 29 -2
39 -7 41 -22 4 -25 71 -70 84 -57 5 5 8 25 6 43 -3 31 -6 34 -36 34 -30 0 -32
1 -26 30 4 24 0 35 -20 54 -26 24 -35 61 -16 61 5 0 23 -14 40 -31 25 -26 32
-30 45 -19 19 16 19 27 -2 48 -16 16 -15 17 16 20 34 4 51 26 32 45 -6 6 -11
23 -11 38 0 27 -1 27 -27 14 -36 -19 -44 -11 -37 37 5 40 4 41 -14 25 -27 -25
-37 -21 -58 20 -10 20 -35 51 -54 69 -32 30 -36 31 -57 17 -21 -14 -25 -14
-45 3 -21 19 -21 19 -14 -11z"/>
<path d="M5026 2731 c-4 -7 -5 -15 -2 -18 9 -9 19 4 14 18 -4 11 -6 11 -12 0z"/>
<path d="M4080 2701 c0 -5 5 -13 10 -16 6 -3 10 -2 10 4 0 5 -4 13 -10 16 -5
3 -10 2 -10 -4z"/>
<path d="M4831 2651 c-9 -17 -7 -28 14 -62 15 -22 24 -47 21 -55 -7 -19 14
-64 30 -64 8 0 21 11 29 24 14 21 14 28 1 67 -9 24 -16 56 -16 72 0 20 -5 27
-19 27 -11 0 -26 3 -34 6 -9 3 -20 -3 -26 -15z"/>
<path d="M1335 2631 c-9 -15 8 -35 24 -30 8 3 7 10 -2 23 -10 14 -16 16 -22 7z"/>
<path d="M4580 2624 c0 -9 5 -14 12 -12 18 6 21 28 4 28 -9 0 -16 -7 -16 -16z"/>
<path d="M4712 2628 c-14 -14 -16 -38 -3 -38 15 0 30 25 22 38 -5 9 -10 9 -19
0z"/>
<path d="M4750 2630 c0 -5 7 -7 15 -4 8 4 15 8 15 10 0 2 -7 4 -15 4 -8 0 -15
-4 -15 -10z"/>
<path d="M3917 2623 c-2 -4 -2 -17 0 -28 7 -32 7 -48 -1 -75 -5 -19 -5 -21 3
-10 9 12 11 11 11 -7 0 -23 -26 -26 -39 -4 -6 10 -10 9 -15 -4 -13 -34 -7 -43
28 -43 19 0 39 -3 45 -7 8 -4 9 6 5 32 -3 21 -6 56 -6 78 -1 39 -21 85 -31 68z"/>
<path d="M1270 2612 c0 -5 7 -13 16 -16 10 -4 14 -1 12 6 -5 15 -28 23 -28 10z"/>
<path d="M4786 2573 c-12 -12 -6 -33 9 -33 8 0 15 6 15 14 0 17 -14 28 -24 19z"/>
<path d="M1286 2545 c-8 -30 -25 -32 -58 -5 l-26 20 -25 -24 c-28 -26 -26 -36
10 -36 13 0 26 -7 29 -15 5 -11 18 -14 58 -11 52 5 57 10 41 49 -5 12 -2 17 9
17 21 0 21 16 0 24 -26 10 -32 7 -38 -19z"/>
<path d="M4804 2479 c-3 -6 -1 -16 5 -22 8 -8 11 -5 11 11 0 24 -5 28 -16 11z"/>
<path d="M1176 2443 c-4 -9 -4 -14 0 -10 4 4 14 1 22 -5 12 -10 14 -9 11 6 -5
26 -25 31 -33 9z"/>
<path d="M4817 2433 c-4 -3 -7 -11 -7 -17 0 -6 5 -5 12 2 6 6 9 14 7 17 -3 3
-9 2 -12 -2z"/>
<path d="M364 2407 c-8 -21 2 -35 16 -21 5 5 6 15 0 24 -8 12 -10 12 -16 -3z"/>
<path d="M976 2393 c-6 -14 -5 -15 5 -6 7 7 10 15 7 18 -3 3 -9 -2 -12 -12z"/>
<path d="M3882 2380 c7 -11 18 -20 25 -20 18 0 16 10 -4 26 -26 20 -35 17 -21
-6z"/>
<path d="M3824 2363 c1 -14 7 -28 15 -31 10 -3 12 1 8 17 -3 12 0 21 6 21 7 0
5 5 -3 10 -23 15 -27 12 -26 -17z"/>
<path d="M396 2351 c-3 -5 1 -11 9 -15 8 -3 15 -1 15 4 0 13 -18 22 -24 11z"/>
<path d="M3953 2345 c0 -8 6 -15 14 -15 7 0 13 7 13 15 0 8 -6 15 -13 15 -8 0
-14 -7 -14 -15z"/>
<path d="M677 2315 c-29 -25 -71 -33 -82 -15 -14 22 -23 8 -13 -21 9 -27 14
-30 37 -23 14 4 39 8 54 10 31 2 56 28 57 57 0 24 -20 21 -53 -8z"/>
<path d="M3893 2313 c-15 -3 -23 -12 -23 -24 0 -22 1 -23 35 -7 22 10 37 40
18 37 -5 -1 -18 -4 -30 -6z"/>
<path d="M1016 2246 c3 -7 16 -18 29 -24 19 -9 23 -8 19 2 -3 7 -16 18 -29 24
-19 9 -23 8 -19 -2z"/>
<path d="M552 2238 c3 -7 14 -17 26 -23 12 -5 25 -17 27 -26 5 -14 44 -29 76
-29 5 0 9 14 9 30 0 34 -2 35 -29 18 -24 -15 -71 3 -71 27 0 9 -9 15 -21 15
-12 0 -19 -5 -17 -12z"/>
<path d="M4696 2148 c-20 -40 -20 -64 0 -72 22 -8 21 -9 26 24 4 27 2 30 -16
24 -18 -6 -19 -5 -7 9 7 9 17 14 22 11 5 -3 9 4 9 15 0 31 -16 25 -34 -11z"/>
<path d="M695 2133 c-11 -3 -24 -9 -29 -14 -6 -5 -14 -5 -21 1 -6 5 -17 5 -25
0 -11 -7 -11 -11 -1 -23 8 -10 9 -17 1 -22 -15 -9 -12 -22 8 -29 67 -22 132
-82 132 -122 0 -23 3 -26 25 -22 19 4 25 1 25 -13 0 -11 7 -19 15 -19 8 0 15
5 15 10 0 5 3 9 8 9 22 -4 34 3 28 16 -3 9 3 19 16 26 20 11 20 13 5 24 -9 7
-17 15 -17 20 0 4 -9 18 -20 32 -23 30 -27 51 -5 33 8 -7 26 -9 44 -5 24 5 32
2 41 -15 6 -11 15 -18 21 -15 17 11 10 61 -12 81 -16 15 -24 16 -39 6 -11 -7
-27 -12 -35 -12 -19 0 -67 29 -78 48 -6 8 -13 10 -20 4 -7 -5 -22 -13 -34 -16
-18 -6 -22 -4 -17 8 6 16 4 17 -31 9z m265 -73 c0 -5 -6 -10 -14 -10 -8 0 -18
5 -21 10 -3 6 3 10 14 10 12 0 21 -4 21 -10z"/>
<path d="M812 2128 c2 -6 10 -14 16 -16 7 -2 10 2 6 12 -7 18 -28 22 -22 4z"/>
<path d="M4074 2095 c-8 -19 2 -45 16 -45 5 0 10 6 10 14 0 8 5 16 12 18 15 5
1 28 -18 28 -8 0 -17 -7 -20 -15z"/>
<path d="M4790 2105 c0 -2 12 -21 26 -42 23 -35 24 -38 8 -50 -15 -11 -21 -10
-36 4 -10 9 -18 14 -19 12 0 -2 -2 -12 -4 -21 -2 -10 1 -20 6 -24 13 -8 11
-42 -3 -47 -9 -4 -8 -6 3 -6 8 -1 28 13 44 29 21 22 38 30 64 31 32 0 34 1 13
10 -16 6 -22 15 -20 31 2 15 -4 26 -21 34 -13 7 -28 20 -33 28 -8 15 -28 23
-28 11z"/>
<path d="M4600 2059 c0 -5 5 -7 10 -4 6 3 10 8 10 11 0 2 -4 4 -10 4 -5 0 -10
-5 -10 -11z"/>
<path d="M4947 2046 c-13 -10 -15 -16 -7 -21 7 -4 10 -15 7 -25 -6 -24 58 -56
79 -39 8 6 14 17 13 23 0 7 -2 6 -6 -1 -10 -27 -25 -12 -19 18 10 52 -26 76
-67 45z"/>
<path d="M4151 2001 c-7 -5 -11 -13 -7 -19 7 -12 -47 -70 -66 -69 -35 1 -46
-5 -52 -27 -9 -35 2 -60 20 -45 17 14 44 5 44 -14 0 -9 9 -12 30 -9 18 3 40
-3 56 -13 19 -12 29 -14 37 -6 6 6 18 11 27 11 8 0 23 7 33 14 17 13 14 17
-37 51 -46 30 -56 42 -56 65 0 16 5 32 10 35 6 3 10 13 10 21 0 16 -27 19 -49
5z"/>
<path d="M670 1950 c0 -5 4 -10 9 -10 6 0 13 5 16 10 3 6 -1 10 -9 10 -9 0
-16 -4 -16 -10z"/>
<path d="M4825 1903 c12 -31 10 -36 -13 -48 l-23 -13 30 -21 c33 -24 46 -15
33 21 -5 12 -7 35 -5 51 3 20 -1 27 -13 27 -11 0 -14 -5 -9 -17z"/>
<path d="M4390 1841 c0 -5 5 -13 10 -16 6 -3 10 -2 10 4 0 5 -4 13 -10 16 -5
3 -10 2 -10 -4z"/>
<path d="M5000 1837 c0 -14 20 -37 32 -37 4 0 8 11 8 25 0 18 -5 25 -20 25
-11 0 -20 -6 -20 -13z"/>
<path d="M4122 1718 c5 -15 28 -23 28 -10 0 5 -7 13 -16 16 -10 4 -14 1 -12
-6z"/>
<path d="M3997 1673 c-13 -12 -7 -23 12 -23 28 0 52 11 45 21 -6 10 -48 12
-57 2z"/>
<path d="M4142 1658 c5 -15 28 -18 29 -3 0 6 -7 12 -17 13 -10 3 -15 -1 -12
-10z"/>
<path d="M819 1628 c-18 -59 -15 -73 11 -73 14 0 36 -4 49 -9 19 -7 22 -13 18
-36 -5 -23 -3 -27 12 -23 19 5 19 37 0 49 -5 3 -9 13 -9 24 0 21 -20 31 -50
23 -19 -5 -20 -3 -14 21 4 16 2 26 -5 26 -6 0 -11 -1 -12 -2z"/>
<path d="M3935 1612 c-5 -4 -15 -16 -21 -27 -6 -11 -22 -22 -35 -23 -13 -2
-28 -7 -32 -12 -13 -12 2 -50 18 -44 7 3 16 1 19 -5 12 -19 33 -1 28 25 -3 17
0 24 11 24 12 0 37 45 37 66 0 6 -14 4 -25 -4z"/>
<path d="M4060 1602 c0 -13 25 -22 62 -22 19 0 28 4 26 13 -5 14 -88 23 -88 9z"/>
<path d="M4193 1532 c-40 -4 -40 -10 -2 -41 30 -24 31 -24 50 -4 19 18 19 20
2 34 -10 8 -32 13 -50 11z"/>
<path d="M871 1464 c0 -11 3 -14 6 -6 3 7 2 16 -1 19 -3 4 -6 -2 -5 -13z"/>
<path d="M3925 1423 c-28 -7 -46 -26 -20 -22 16 3 46 -11 84 -38 2 -1 -2 -9
-9 -18 -10 -12 -10 -15 2 -15 22 0 90 61 84 76 -3 7 0 15 7 18 7 2 4 5 -5 5
-9 1 -21 -6 -26 -15 -8 -14 -10 -14 -21 0 -13 15 -54 19 -96 9z"/>
<path d="M4466 1291 c-4 -6 -16 -11 -27 -11 -22 0 -53 -61 -36 -72 17 -10 47
15 47 40 0 19 3 21 19 12 26 -13 39 6 18 27 -10 10 -17 11 -21 4z"/>
<path d="M4533 1266 c5 -13 -2 -28 -29 -53 -31 -29 -35 -36 -23 -48 9 -8 27
-11 46 -8 28 4 31 8 23 23 -20 38 -5 41 37 7 39 -32 113 -60 113 -42 0 19 -45
45 -80 45 -19 0 -30 5 -30 14 0 8 -14 29 -32 47 -19 21 -29 27 -25 15z m-21
-98 c-7 -7 -12 -8 -12 -2 0 14 12 26 19 19 2 -3 -1 -11 -7 -17z"/>
<path d="M3880 1129 c-15 -28 -5 -36 18 -16 10 10 24 17 31 17 7 0 9 5 6 10
-11 17 -44 11 -55 -11z"/>
<path d="M4431 1067 c-9 -11 -9 -25 1 -61 13 -50 31 -56 36 -13 4 30 22 27 22
-4 0 -10 5 -19 11 -19 8 0 9 11 5 31 -3 17 -6 38 -6 45 0 8 -8 14 -18 14 -10
0 -23 5 -28 10 -8 8 -14 6 -23 -3z"/>
<path d="M4060 1040 c0 -11 7 -20 15 -20 8 0 15 9 15 20 0 11 -7 20 -15 20 -8
0 -15 -9 -15 -20z"/>
<path d="M4206 1001 c-18 -12 -24 -21 -17 -26 7 -4 17 -3 24 2 7 5 22 8 35 7
27 -2 29 12 4 25 -13 7 -26 5 -46 -8z"/>
<path d="M3885 1000 c3 -5 8 -10 11 -10 2 0 4 5 4 10 0 6 -5 10 -11 10 -5 0
-7 -4 -4 -10z"/>
<path d="M770 296 c0 -16 37 -29 45 -16 3 5 -3 14 -14 19 -26 14 -31 14 -31
-3z"/>
<path d="M1000 291 c0 -17 18 -21 24 -6 3 9 0 15 -9 15 -8 0 -15 -4 -15 -9z"/>
<path d="M975 250 c4 -6 10 -8 15 -5 5 3 11 1 15 -5 9 -15 25 -12 25 5 0 10
-10 15 -31 15 -18 0 -28 -4 -24 -10z"/>
<path d="M806 241 c-3 -5 3 -11 14 -14 13 -3 20 0 20 9 0 15 -26 19 -34 5z"/>
<path d="M1070 130 c0 -5 5 -10 10 -10 6 0 10 5 10 10 0 6 -4 10 -10 10 -5 0
-10 -4 -10 -10z"/>
<path d="M5013 100 c-31 -12 -29 -30 2 -30 18 0 25 5 25 20 0 11 -1 20 -2 19
-2 0 -13 -4 -25 -9z"/>
<path d="M1081 79 c-13 -21 -12 -22 24 -16 56 9 61 20 15 32 -19 4 -28 1 -39
-16z"/>
<path d="M0 46 c0 -25 5 -46 10 -46 6 0 10 16 10 35 0 19 0 38 1 42 0 4 -4 9
-10 11 -7 2 -11 -14 -11 -42z"/>
<path d="M4955 66 c-16 -12 -18 -17 -7 -27 15 -16 36 1 30 25 -3 15 -5 15 -23
2z"/>
<path d="M1087 20 c-3 -13 0 -20 9 -20 8 0 14 9 14 20 0 11 -4 20 -9 20 -5 0
-11 -9 -14 -20z"/>
<path d="M4980 15 c-11 -13 -7 -15 25 -15 32 0 36 2 25 15 -7 8 -18 15 -25 15
-7 0 -18 -7 -25 -15z"/>
</g>
</svg>
